<?xml version="1.0" encoding="UTF-8" standalone="no"?>
<svg
   version="1.1"
   id="dew-point-perception-hand"
   width="24"
   height="24"
   viewBox="0 0 24 24"
   xmlns="http://www.w3.org/2000/svg"
   xmlns:svg="http://www.w3.org/2000/svg">
  <desc>hand thermometer water dew perception</desc>
  <path d="M 9.8457031 5 L 5.3886719 8.6757812 L 4.1972656 13.4375 L 9.4511719 16.470703 L 10.107422 15.332031 L 10.988281 10.181641 C 11.042901 9.8083806 10.91096 9.5316314 10.595703 9.3496094 C 10.412775 9.2439854 10.216532 9.2178034 10.003906 9.2714844 C 9.7912692 9.3251344 9.6207287 9.4505395 9.4960938 9.6484375 L 8.5527344 11.283203 L 8.3535156 12.529297 L 7.6933594 12.404297 L 7.96875 10.945312 L 10.328125 6.859375 C 10.521377 6.5246392 10.569698 6.1730683 10.46875 5.8085938 C 10.367817 5.4441191 10.159319 5.1758831 9.8457031 5 z M 13 5 C 12.585215 5 12.20565 5.1404324 11.902344 5.3730469 C 11.905844 5.3848329 11.910742 5.3964011 11.914062 5.4082031 C 12.11324 6.1273329 11.993362 6.9747192 11.626953 7.609375 L 11.361328 8.0683594 C 12.080907 8.4977448 12.59134 9.5874198 12.472656 10.398438 L 12.46875 10.416016 L 11.541016 15.849609 L 10.824219 17.089844 L 10.488281 17.673828 C 11.016583 18.481467 11.928427 19 13 19 C 13.05312 19 13.105887 18.998594 13.158203 18.996094 C 14.780008 18.918218 16 17.646875 16 16 C 16 15 15.500781 14.099609 14.800781 13.599609 L 14.800781 6.8007812 C 14.800781 5.8007812 14 5 13 5 z M 13 6 C 13.4 6 13.800781 6.3007814 13.800781 6.8007812 L 13.800781 8 L 12.300781 8 L 12.300781 6.8007812 L 12.199219 6.8007812 C 12.199219 6.7695312 12.201978 6.7386474 12.205078 6.7089844 C 12.250407 6.2640385 12.625 6 13 6 z M 18.255859 9.2851562 C 18.255859 9.2851562 16 11.8256 16 13.330078 C 16.0047 13.390888 16.011874 13.451487 16.021484 13.511719 C 16.418581 13.971362 16.729274 14.510441 16.886719 15.117188 C 17.279267 15.4195 17.760396 15.584223 18.255859 15.585938 C 19.502303 15.586543 20.513199 14.576522 20.513672 13.330078 C 20.513672 11.8256 18.255859 9.2851562 18.255859 9.2851562 z M 2.3535156 13.931641 L 1 16.275391 L 7.421875 19.982422 L 8.7753906 17.638672 L 2.3535156 13.931641 z " />
</svg>
