<?xml version="1.0" encoding="UTF-8" standalone="no"?>
<svg
   version="1.1"
   id="tc-hand-thermometer-fire"
   width="24"
   height="24"
   viewBox="0 0 24 24"
   xmlns="http://www.w3.org/2000/svg"
   xmlns:svg="http://www.w3.org/2000/svg">
  <defs
     id="defs7" />
  <path
     id="path849"
     d="M 3 3 L 3 11.363281 L 6.0527344 11.363281 L 6.0527344 3 L 3 3 z M 12.896484 3 L 7.5742188 4.5214844 L 7.5742188 11.363281 L 9.0566406 11.363281 L 14.583984 9.3183594 C 14.979331 9.1612366 15.175775 8.8773371 15.175781 8.4667969 C 15.175786 8.2285837 15.090297 8.0211415 14.917969 7.84375 C 14.745673 7.666328 14.527228 7.5706831 14.263672 7.5605469 L 12.134766 7.5625 L 10.804688 8.0703125 L 10.554688 7.3554688 L 12.134766 6.8007812 L 17.457031 6.8007812 C 17.892922 6.8007742 18.261503 6.6498116 18.560547 6.3457031 C 18.8596 6.0416054 19.005062 5.686721 19 5.28125 L 12.896484 3 z M 14.736328 10.328125 L 13.787109 10.679688 C 13.792509 10.718927 13.800781 10.758638 13.800781 10.800781 L 13.800781 12 L 12.300781 12 L 12.300781 11.228516 L 11.199219 11.636719 L 11.199219 17.599609 C 10.499221 18.099609 10 19 10 20 C 10 21.7 11.3 23 13 23 C 13.053125 23 13.105887 22.998605 13.158203 22.996094 C 14.780008 22.918234 16 21.646875 16 20 C 16 19 15.500781 18.099609 14.800781 17.599609 L 14.800781 10.800781 C 14.800781 10.637194 14.776518 10.478381 14.736328 10.328125 z M 19.083984 13 C 18.704054 13.09198 18.371839 13.299385 18.087891 13.527344 C 17.052081 14.359191 16.644902 15.828122 17.132812 17.087891 C 17.148812 17.127891 17.164062 17.166764 17.164062 17.21875 C 17.164062 17.30673 17.105375 17.387929 17.025391 17.419922 C 16.933411 17.459922 16.835752 17.435084 16.759766 17.371094 C 16.735766 17.351094 16.721068 17.330724 16.705078 17.302734 C 16.253161 16.730838 16.180431 15.911739 16.484375 15.255859 C 16.196619 15.490199 15.966737 15.79508 15.800781 16.134766 L 15.800781 17.273438 C 16.473625 17.955808 16.962148 18.839786 16.996094 19.884766 C 17.275222 20.030334 17.577748 20.127344 17.888672 20.166016 C 18.744516 20.273996 19.660527 20.119226 20.316406 19.527344 C 21.048273 18.863465 21.303664 17.798552 20.927734 16.886719 L 20.875 16.783203 C 20.79102 16.599237 20.568359 16.279297 20.568359 16.279297 C 20.476376 16.159319 20.363747 16.055154 20.259766 15.951172 C 19.991815 15.711217 19.687594 15.539063 19.431641 15.287109 C 18.83575 14.703216 18.704054 13.739864 19.083984 13 z M 18.503906 16.175781 C 18.579886 16.327753 18.659876 16.479631 18.755859 16.599609 C 19.063802 16.999536 19.548362 17.17485 19.652344 17.71875 C 19.668344 17.77474 19.675781 17.830636 19.675781 17.890625 C 19.687781 18.218565 19.544645 18.578868 19.304688 18.798828 C 19.192708 18.894808 19.009208 18.999069 18.865234 19.039062 C 18.417316 19.199033 17.96903 18.974896 17.705078 18.710938 C 18.180991 18.598958 18.464843 18.24656 18.548828 17.890625 C 18.616808 17.570684 18.487537 17.307943 18.435547 17 C 18.387547 16.704053 18.395916 16.45173 18.503906 16.175781 z " />
</svg>
