<?xml version="1.0" encoding="UTF-8" standalone="no"?>
<svg
   version="1.1"
   id="heat-index-perception-hand"
   width="24"
   height="24"
   viewBox="0 0 24 24"
   xmlns="http://www.w3.org/2000/svg"
   xmlns:svg="http://www.w3.org/2000/svg">
  <desc>thermal-perception heat-index hand thermometer fire</desc>
  <path d="M 9.8457031 5 L 5.3886719 8.6757812 L 4.1972656 13.4375 L 9.4511719 16.470703 L 10.107422 15.332031 L 10.988281 10.181641 C 11.042901 9.8083806 10.91096 9.5316314 10.595703 9.3496094 C 10.412775 9.2439854 10.216532 9.2178034 10.003906 9.2714844 C 9.7912692 9.3251344 9.6207287 9.4505395 9.4960938 9.6484375 L 8.5527344 11.283203 L 8.3535156 12.529297 L 7.6933594 12.404297 L 7.96875 10.945312 L 10.328125 6.859375 C 10.521377 6.5246392 10.569698 6.1730683 10.46875 5.8085938 C 10.367817 5.4441191 10.159319 5.1758831 9.8457031 5 z M 13 5 C 12.585215 5 12.20565 5.1404324 11.902344 5.3730469 C 11.905844 5.3848329 11.910742 5.3964011 11.914062 5.4082031 C 12.11324 6.1273329 11.993362 6.9747192 11.626953 7.609375 L 11.361328 8.0683594 C 12.080907 8.4977448 12.59134 9.5874198 12.472656 10.398438 L 12.46875 10.416016 L 11.541016 15.849609 L 10.824219 17.089844 L 10.488281 17.673828 C 11.016583 18.481467 11.928427 19 13 19 C 13.05312 19 13.105887 18.998594 13.158203 18.996094 C 14.780008 18.918218 16 17.646875 16 16 C 16 15 15.500781 14.099609 14.800781 13.599609 L 14.800781 6.8007812 C 14.800781 5.8007812 14 5 13 5 z M 13 6 C 13.4 6 13.800781 6.3007814 13.800781 6.8007812 L 13.800781 8 L 12.300781 8 L 12.300781 6.8007812 L 12.199219 6.8007812 C 12.199219 6.7695312 12.201978 6.7386474 12.205078 6.7089844 C 12.250407 6.2640385 12.625 6 13 6 z M 19.083984 9 C 18.704054 9.09198 18.371839 9.2993848 18.087891 9.5273438 C 17.052081 10.359191 16.644903 11.828122 17.132812 13.087891 C 17.148812 13.127891 17.164062 13.166761 17.164062 13.21875 C 17.164062 13.30673 17.105372 13.387929 17.025391 13.419922 C 16.933411 13.459922 16.835752 13.435084 16.759766 13.371094 C 16.735766 13.351094 16.721068 13.330724 16.705078 13.302734 C 16.253161 12.730838 16.180431 11.911739 16.484375 11.255859 C 16.196619 11.490199 15.966737 11.79508 15.800781 12.134766 L 15.800781 13.273438 C 16.473625 13.955808 16.962148 14.839786 16.996094 15.884766 C 17.275222 16.030334 17.577748 16.127344 17.888672 16.166016 C 18.744516 16.273996 19.660527 16.119226 20.316406 15.527344 C 21.048273 14.863465 21.303664 13.798552 20.927734 12.886719 L 20.875 12.783203 C 20.79102 12.599237 20.568359 12.279297 20.568359 12.279297 C 20.476376 12.159319 20.363747 12.055154 20.259766 11.951172 C 19.991815 11.711217 19.687594 11.539063 19.431641 11.287109 C 18.83575 10.703216 18.704054 9.739864 19.083984 9 z M 18.503906 12.175781 C 18.579886 12.327753 18.659876 12.479631 18.755859 12.599609 C 19.063802 12.999536 19.548362 13.17485 19.652344 13.71875 C 19.668344 13.77474 19.675781 13.830636 19.675781 13.890625 C 19.687781 14.218565 19.544645 14.578868 19.304688 14.798828 C 19.192708 14.894808 19.009208 14.999069 18.865234 15.039062 C 18.417316 15.199034 17.96903 14.974891 17.705078 14.710938 C 18.180991 14.598957 18.464843 14.24656 18.548828 13.890625 C 18.616808 13.570684 18.487538 13.307943 18.435547 13 C 18.387547 12.704053 18.395916 12.45173 18.503906 12.175781 z M 2.3535156 13.931641 L 1 16.275391 L 7.421875 19.982422 L 8.7753906 17.638672 L 2.3535156 13.931641 z " />
</svg>
