<?xml version="1.0" encoding="UTF-8" standalone="no"?>
<svg
   version="1.1"
   id="tc-hand-thermometer-power-sleep"
   width="24"
   height="24"
   viewBox="0 0 24 24"
   sodipodi:docname="hand-thermometer-moon.svg"
   inkscape:version="1.1.1 (3bf5ae0d25, 2021-09-20, custom)"
   xmlns:inkscape="http://www.inkscape.org/namespaces/inkscape"
   xmlns:sodipodi="http://sodipodi.sourceforge.net/DTD/sodipodi-0.dtd"
   xmlns="http://www.w3.org/2000/svg"
   xmlns:svg="http://www.w3.org/2000/svg">
  <sodipodi:namedview
     id="namedview6"
     pagecolor="#ffffff"
     bordercolor="#666666"
     borderopacity="1.0"
     inkscape:pageshadow="2"
     inkscape:pageopacity="0.0"
     inkscape:pagecheckerboard="0"
     showgrid="false"
     inkscape:zoom="29.958333"
     inkscape:cx="12"
     inkscape:cy="12"
     inkscape:window-width="2752"
     inkscape:window-height="1083"
     inkscape:window-x="0"
     inkscape:window-y="0"
     inkscape:window-maximized="1"
     inkscape:current-layer="mdi-hand-heart" />
  <defs
     id="defs7" />
  <path
     id="path2"
     d="M 10.201172 1 C 9.3171339 1.0778889 8.5001463 1.4863591 7.9042969 2.140625 C 6.6074483 3.5776738 6.7191779 5.7949491 8.1484375 7.0917969 C 9.5932751 8.4003297 11.810573 8.2788446 13.107422 6.8417969 L 12.822266 6.8417969 C 11.9577 6.8417969 11.121123 6.5255966 10.486328 5.9492188 C 9.0337019 4.6562652 8.9121121 2.4409433 10.201172 1 z M 16 2 C 15.214286 2 14.585936 2.6283483 14.585938 3.4140625 L 14.585938 8.7578125 C 14.035937 9.1506695 13.642578 9.856864 13.642578 10.642578 C 13.642578 11.978293 14.664285 13 16 13 C 17.335714 13 18.357422 11.978293 18.357422 10.642578 C 18.357422 9.856864 17.964063 9.1506695 17.414062 8.7578125 L 17.414062 3.4140625 C 17.414062 2.6283483 16.785714 2 16 2 z M 16 2.7851562 C 16.314286 2.7851562 16.628906 3.0212054 16.628906 3.4140625 L 16.628906 4.3574219 L 15.371094 4.3574219 L 15.371094 3.4140625 C 15.371094 3.0212055 15.685714 2.7851563 16 2.7851562 z M 0.984375 11 L 0.984375 22 L 5 22 L 5 11 L 0.984375 11 z M 7 11 L 7 20 L 14 22 L 22.029297 19 C 22.035964 18.466667 21.842552 17.999609 21.449219 17.599609 C 21.055886 17.199609 20.573333 17 20 17 L 13 17 L 10.919922 16.269531 L 11.25 15.330078 L 13 16 L 15.800781 16 C 16.147448 15.986667 16.433489 15.864192 16.660156 15.630859 C 16.886823 15.397526 17 15.12388 17 14.810547 C 17 14.270547 16.740703 13.89612 16.220703 13.689453 L 8.9492188 11 L 7 11 z " />
</svg>
