<?xml version="1.0" encoding="UTF-8" standalone="no"?>
<svg
   version="1.1"
   id="tc-hand-thermometer"
   width="24"
   height="24"
   viewBox="0 0 24 24"
   xmlns="http://www.w3.org/2000/svg"
   xmlns:svg="http://www.w3.org/2000/svg">
  <defs
     id="defs7" />
  <path
     id="path2"
     d="M 16 2 C 15.214286 2 14.585937 2.6283483 14.585938 3.4140625 L 14.585938 8.7578125 C 14.035937 9.1506695 13.642578 9.8568639 13.642578 10.642578 C 13.642578 11.978293 14.664285 13 16 13 C 17.335714 13 18.357422 11.978293 18.357422 10.642578 C 18.357422 9.8568639 17.964063 9.1506695 17.414062 8.7578125 L 17.414062 3.4140625 C 17.414062 2.6283483 16.785714 2 16 2 z M 16 2.7851562 C 16.314286 2.7851562 16.628906 3.0212054 16.628906 3.4140625 L 16.628906 4.3574219 L 15.371094 4.3574219 L 15.371094 3.4140625 C 15.371094 3.0212055 15.685714 2.7851562 16 2.7851562 z M 0.984375 11 L 0.984375 22 L 5 22 L 5 11 L 0.984375 11 z M 7 11 L 7 20 L 14 22 L 22.029297 19 C 22.035964 18.466667 21.842552 17.999609 21.449219 17.599609 C 21.055886 17.199609 20.573333 17 20 17 L 13 17 L 10.919922 16.269531 L 11.25 15.330078 L 13 16 L 15.800781 16 C 16.147448 15.986667 16.433489 15.864192 16.660156 15.630859 C 16.886823 15.397526 17 15.12388 17 14.810547 C 17 14.270547 16.740703 13.89612 16.220703 13.689453 L 8.9492188 11 L 7 11 z " />
</svg>
