<?xml version="1.0" encoding="UTF-8" standalone="no"?>
<svg
   version="1.1"
   id="thermal-perception-hand"
   width="24"
   height="24"
   viewBox="0 0 24 24"
   xmlns="http://www.w3.org/2000/svg"
   xmlns:svg="http://www.w3.org/2000/svg">
  <desc>hand thermometer</desc>
  <path d="M 11.845703 5 L 7.3886719 8.6757812 L 6.1972656 13.4375 L 11.451172 16.470703 L 12.107422 15.332031 L 12.988281 10.181641 C 13.042901 9.8083798 12.91096 9.5316314 12.595703 9.3496094 C 12.412775 9.2439854 12.216532 9.2178034 12.003906 9.2714844 C 11.791269 9.3251344 11.620729 9.4505395 11.496094 9.6484375 L 10.552734 11.283203 L 10.353516 12.529297 L 9.6933594 12.404297 L 9.96875 10.945312 L 12.328125 6.859375 C 12.521377 6.5246392 12.569698 6.1730683 12.46875 5.8085938 C 12.367817 5.4441191 12.159319 5.1758831 11.845703 5 z M 15 5 C 14.585215 5 14.20565 5.1404324 13.902344 5.3730469 C 13.905844 5.3848329 13.910744 5.3964011 13.914062 5.4082031 C 14.11324 6.1273329 13.993362 6.9747192 13.626953 7.609375 L 13.361328 8.0683594 C 14.080907 8.4977448 14.59134 9.5874188 14.472656 10.398438 L 14.46875 10.416016 L 13.541016 15.849609 L 12.824219 17.089844 L 12.488281 17.673828 C 13.016583 18.481467 13.928427 19 15 19 C 15.05312 19 15.105887 18.998594 15.158203 18.996094 C 16.780008 18.918218 18 17.646875 18 16 C 18 15 17.500781 14.099609 16.800781 13.599609 L 16.800781 6.8007812 C 16.800781 5.8007812 16 5 15 5 z M 15 6 C 15.4 6 15.800781 6.3007814 15.800781 6.8007812 L 15.800781 8 L 14.300781 8 L 14.300781 6.8007812 L 14.199219 6.8007812 C 14.199219 6.7695312 14.201978 6.7386474 14.205078 6.7089844 C 14.250407 6.2640385 14.625 6 15 6 z M 4.3535156 13.931641 L 3 16.275391 L 9.421875 19.982422 L 10.775391 17.638672 L 4.3535156 13.931641 z " />
</svg>
