<?xml version="1.0" encoding="UTF-8" standalone="no"?>
<svg
   version="1.1"
   id="mdi-hand-heart"
   width="24"
   height="24"
   viewBox="0 0 24 24"
   xmlns="http://www.w3.org/2000/svg"
   xmlns:svg="http://www.w3.org/2000/svg">
  <defs
     id="defs7" />
  <path
     id="path849"
     d="M 3 3 L 3 11.363281 L 6.0527344 11.363281 L 6.0527344 3 L 3 3 z M 12.896484 3 L 7.5742188 4.5214844 L 7.5742188 11.363281 L 9.0566406 11.363281 L 14.583984 9.3183594 C 14.979331 9.1612366 15.175775 8.8773371 15.175781 8.4667969 C 15.175786 8.2285837 15.090297 8.0211415 14.917969 7.84375 C 14.745673 7.666328 14.527228 7.5706831 14.263672 7.5605469 L 12.134766 7.5625 L 10.804688 8.0703125 L 10.554688 7.3554688 L 12.134766 6.8007812 L 17.457031 6.8007812 C 17.892922 6.8007742 18.261503 6.6498116 18.560547 6.3457031 C 18.8596 6.0416054 19.005062 5.686721 19 5.28125 L 12.896484 3 z M 14.736328 10.328125 L 13.787109 10.679688 C 13.792509 10.718927 13.800781 10.758638 13.800781 10.800781 L 13.800781 12 L 12.300781 12 L 12.300781 11.228516 L 11.199219 11.636719 L 11.199219 17.599609 C 10.499221 18.099609 10 19 10 20 C 10 21.7 11.3 23 13 23 C 13.053125 23 13.105887 22.998605 13.158203 22.996094 C 14.780008 22.918234 16 21.646875 16 20 C 16 19 15.500781 18.099609 14.800781 17.599609 L 14.800781 10.800781 C 14.800781 10.637194 14.776518 10.478381 14.736328 10.328125 z M 18.001953 12 L 16.898438 13.580078 C 17.240436 13.455304 17.613737 13.386719 18.001953 13.386719 C 18.390168 13.386719 18.765423 13.455289 19.107422 13.580078 L 18.001953 12 z M 20.082031 14.144531 C 20.359327 14.380227 20.604719 14.671157 20.798828 15.003906 C 20.992934 15.341275 21.116951 15.697402 21.181641 16.0625 L 22 14.310547 L 20.082031 14.144531 z M 18.001953 14.310547 C 16.970938 14.310547 16.098309 14.98564 15.800781 15.917969 L 15.800781 17.273438 C 16.1534 17.631048 16.454968 18.043526 16.667969 18.505859 C 17.045134 18.773493 17.50427 18.931641 18.001953 18.931641 C 19.278177 18.931641 20.3125 17.897286 20.3125 16.621094 C 20.3125 15.344901 19.278177 14.310547 18.001953 14.310547 z M 21.177734 17.181641 C 21.113034 17.546741 20.987077 17.900912 20.792969 18.238281 C 20.598863 18.571029 20.354706 18.861961 20.082031 19.097656 L 21.996094 18.931641 L 21.177734 17.181641 z M 19.097656 19.652344 C 18.755657 19.77712 18.380924 19.857422 18.001953 19.857422 C 17.640809 19.857422 17.300428 19.789052 16.984375 19.683594 C 16.987975 19.723224 16.991841 19.762614 16.994141 19.802734 L 18.001953 21.242188 L 19.097656 19.652344 z " />
</svg>
