<?xml version="1.0" encoding="UTF-8" standalone="no"?>
<svg
   version="1.1"
   id="thermal-perception-hand-alternative"
   width="24"
   height="24"
   viewBox="0 0 24 24"
   xmlns="http://www.w3.org/2000/svg"
   xmlns:svg="http://www.w3.org/2000/svg">
  <desc>thermal-perception hand thermometer sun</desc>
  <path d="M 9.8457031 5 L 5.3886719 8.6757812 L 4.1972656 13.4375 L 9.4511719 16.470703 L 10.107422 15.332031 L 10.988281 10.181641 C 11.042901 9.8083806 10.91096 9.5316314 10.595703 9.3496094 C 10.412775 9.2439854 10.216532 9.2178034 10.003906 9.2714844 C 9.7912692 9.3251344 9.6207287 9.4505395 9.4960938 9.6484375 L 8.5527344 11.283203 L 8.3535156 12.529297 L 7.6933594 12.404297 L 7.96875 10.945312 L 10.328125 6.859375 C 10.521377 6.5246392 10.569698 6.1730683 10.46875 5.8085938 C 10.367817 5.4441191 10.159319 5.1758831 9.8457031 5 z M 13 5 C 12.585215 5 12.20565 5.1404324 11.902344 5.3730469 C 11.905844 5.3848329 11.910742 5.3964011 11.914062 5.4082031 C 12.11324 6.1273329 11.993362 6.9747192 11.626953 7.609375 L 11.361328 8.0683594 C 12.080907 8.4977448 12.59134 9.5874198 12.472656 10.398438 L 12.46875 10.416016 L 11.541016 15.849609 L 10.824219 17.089844 L 10.488281 17.673828 C 11.016583 18.481467 11.928427 19 13 19 C 13.05312 19 13.105887 18.998594 13.158203 18.996094 C 14.780008 18.918218 16 17.646875 16 16 C 16 15 15.500781 14.099609 14.800781 13.599609 L 14.800781 6.8007812 C 14.800781 5.8007812 14 5 13 5 z M 13 6 C 13.4 6 13.800781 6.3007814 13.800781 6.8007812 L 13.800781 8 L 12.300781 8 L 12.300781 6.8007812 L 12.199219 6.8007812 C 12.199219 6.7695312 12.201978 6.7386474 12.205078 6.7089844 C 12.250407 6.2640385 12.625 6 13 6 z M 18.001953 8 L 16.898438 9.5800781 C 17.240436 9.4553041 17.613737 9.3867187 18.001953 9.3867188 C 18.390168 9.3867188 18.765423 9.4552891 19.107422 9.5800781 L 18.001953 8 z M 20.082031 10.144531 C 20.359327 10.380227 20.604719 10.671157 20.798828 11.003906 C 20.992934 11.341275 21.116951 11.697402 21.181641 12.0625 L 22 10.310547 L 20.082031 10.144531 z M 18.001953 10.310547 C 16.970938 10.310547 16.098309 10.98564 15.800781 11.917969 L 15.800781 13.273438 C 16.1534 13.631047 16.454968 14.043526 16.667969 14.505859 C 17.045134 14.773493 17.50427 14.931641 18.001953 14.931641 C 19.278177 14.931641 20.3125 13.897286 20.3125 12.621094 C 20.3125 11.344901 19.278177 10.310547 18.001953 10.310547 z M 21.177734 13.181641 C 21.113034 13.546741 20.987077 13.900912 20.792969 14.238281 C 20.598863 14.571029 20.354706 14.861961 20.082031 15.097656 L 21.996094 14.931641 L 21.177734 13.181641 z M 2.3535156 13.931641 L 1 16.275391 L 7.421875 19.982422 L 8.7753906 17.638672 L 2.3535156 13.931641 z M 19.097656 15.652344 C 18.755657 15.77712 18.380924 15.857422 18.001953 15.857422 C 17.640809 15.857422 17.300428 15.789052 16.984375 15.683594 C 16.987975 15.723224 16.991841 15.762614 16.994141 15.802734 L 18.001953 17.242188 L 19.097656 15.652344 z " />
</svg>
