<?xml version="1.0" encoding="UTF-8" standalone="no"?>
<svg
   version="1.1"
   id="tc-hand-thermometer-power-sleep"
   width="24"
   height="24"
   viewBox="0 0 24 24"
   xmlns="http://www.w3.org/2000/svg"
   xmlns:svg="http://www.w3.org/2000/svg">
  <defs
     id="defs7" />
  <path
     id="path849"
     d="M 3 3 L 3 11.363281 L 6.0527344 11.363281 L 6.0527344 3 L 3 3 z M 12.896484 3 L 7.5742188 4.5214844 L 7.5742188 11.363281 L 9.0566406 11.363281 L 14.583984 9.3183594 C 14.979331 9.1612366 15.175775 8.8773371 15.175781 8.4667969 C 15.175786 8.2285837 15.090297 8.0211415 14.917969 7.84375 C 14.745673 7.666328 14.527228 7.5706831 14.263672 7.5605469 L 12.134766 7.5625 L 10.804688 8.0703125 L 10.554688 7.3554688 L 12.134766 6.8007812 L 17.457031 6.8007812 C 17.892922 6.8007742 18.261503 6.6498116 18.560547 6.3457031 C 18.8596 6.0416054 19.005062 5.686721 19 5.28125 L 12.896484 3 z M 14.736328 10.328125 L 13.787109 10.679688 C 13.792509 10.718927 13.800781 10.758638 13.800781 10.800781 L 13.800781 12 L 12.300781 12 L 12.300781 11.228516 L 11.199219 11.636719 L 11.199219 17.599609 C 10.499221 18.099609 10 19 10 20 C 10 21.7 11.3 23 13 23 C 14.7 23 16 21.7 16 20 C 16 19 15.500781 18.099609 14.800781 17.599609 L 14.800781 10.800781 C 14.800781 10.637194 14.776518 10.478381 14.736328 10.328125 z M 19.001953 13 C 18.089988 13.08035 17.24553 13.5028 16.630859 14.177734 C 16.360634 14.477172 16.152332 14.80967 16 15.160156 L 16 17.107422 C 16.594256 17.778157 17.048689 18.578749 17.167969 19.513672 C 18.652567 20.61221 20.74395 20.419183 22 19.027344 L 21.705078 19.027344 C 20.813202 19.027344 19.94977 18.702006 19.294922 18.107422 C 17.79641 16.77362 17.672172 14.486461 19.001953 13 z " />
</svg>
