<?xml version="1.0" encoding="UTF-8" standalone="no"?>
<svg
   version="1.1"
   id="mdi-home-thermometer"
   width="24"
   height="24"
   viewBox="0 0 24 24"
   xmlns="http://www.w3.org/2000/svg"
   xmlns:svg="http://www.w3.org/2000/svg">
  <defs
     id="defs7" />
  <path
     id="path2"
     d="M 17 1 C 14.3 1 11.9 2.7 11 5 C 11.9 7.3 14.3 9 17 9 C 19.7 9 22.1 7.3 23 5 C 22.1 2.7 19.7 1 17 1 z M 17 2.5 C 18.4 2.5 19.5 3.6 19.5 5 C 19.5 6.4 18.4 7.5 17 7.5 C 15.6 7.5 14.5 6.4 14.5 5 C 14.5 3.6 15.6 2.5 17 2.5 z M 17 4 C 16.4 4 16 4.4 16 5 C 16 5.6 16.4 6 17 6 C 17.6 6 18 5.6 18 5 C 18 4.4 17.6 4 17 4 z M 9.09375 5.6171875 L 2 12 L 5 12 L 5 20 L 19 20 L 19 12 L 22 12 L 20.201172 10.380859 C 19.209016 10.779765 18.127025 11 17 11 C 15.56161 11 14.197574 10.638097 13 10.005859 L 13 14.269531 A 2 2 0 0 1 14 16 A 2 2 0 0 1 12 18 A 2 2 0 0 1 10 16 A 2 2 0 0 1 11 14.269531 L 11 9 A 1 1 0 0 1 11.076172 8.6171875 A 1 1 0 0 1 11.076172 8.6152344 C 10.237677 7.8063776 9.567343 6.8289992 9.1367188 5.7285156 L 9.09375 5.6171875 z " />
</svg>
