<?xml version="1.0" encoding="UTF-8" standalone="no"?>
<svg
   version="1.1"
   width="24"
   height="24"
   viewBox="0 0 24.00 24.00"
   enable-background="new 0 0 24.00 24.00"
   xml:space="preserve"
   id="svg16"
   xmlns="http://www.w3.org/2000/svg"
   xmlns:svg="http://www.w3.org/2000/svg"><defs
   id="defs20" />
	
	
	
	
	
	
	
<path
   id="path837"
   d="M 8.5 2 A 2 2 0 0 0 6.5 4 A 2 2 0 0 0 8.5 6 A 2 2 0 0 0 10.5 4 A 2 2 0 0 0 8.5 2 z M 18 5 C 17 5 16.199219 5.8007814 16.199219 6.8007812 L 16.199219 13.599609 C 15.499219 14.099609 15 15 15 16 C 15 17.7 16.3 19 18 19 C 19.7 19 21 17.7 21 16 C 21 15 20.500781 14.099609 19.800781 13.599609 L 19.800781 6.8007812 C 19.800781 5.8007812 19 5 18 5 z M 18 6 C 18.4 6 18.800781 6.3007814 18.800781 6.8007812 L 18.800781 8 L 17.300781 8 L 17.300781 6.8007812 L 17.199219 6.8007812 C 17.199219 6.3007812 17.6 6 18 6 z M 7 7 A 2 2 0 0 0 5 9 L 5 14.5 L 6.5 14.5 L 6.5 22 L 10.5 22 L 10.5 14.5 L 12 14.5 L 12 9 A 2 2 0 0 0 10 7 L 7 7 z " /></svg>
