<?xml version="1.0" encoding="UTF-8" standalone="no"?>
<svg
   version="1.1"
   id="simmer-zone"
   width="24"
   height="24"
   viewBox="0 0 24 24"
   xmlns="http://www.w3.org/2000/svg"
   xmlns:svg="http://www.w3.org/2000/svg">
  <desc>human thermometer power-sleep perception</desc>
  <path d="M 6.5 2 A 2 2 0 0 0 4.5 4 A 2 2 0 0 0 6.5 6 A 2 2 0 0 0 8.5 4 A 2 2 0 0 0 6.5 2 z M 14 5 C 13 5 12.199219 5.8007813 12.199219 6.8007812 L 12.199219 13.599609 C 11.499219 14.099609 11 15 11 16 C 11 17.7 12.3 19 14 19 C 14.053125 19 14.105887 18.998605 14.158203 18.996094 C 15.780008 18.918234 17 17.646875 17 16 C 17 15 16.500781 14.099609 15.800781 13.599609 L 15.800781 6.8007812 C 15.800781 5.8007812 15 5 14 5 z M 14 6 C 14.4 6 14.800781 6.3007813 14.800781 6.8007812 L 14.800781 8 L 13.300781 8 L 13.300781 6.8007812 L 13.199219 6.8007812 C 13.199219 6.7695312 13.202051 6.7386475 13.205078 6.7089844 C 13.250488 6.2640381 13.625 6 14 6 z M 5 7 A 2 2 0 0 0 3 9 L 3 14.5 L 4.5 14.5 L 4.5 22 L 8.5 22 L 8.5 14.5 L 10 14.5 L 10 9 A 2 2 0 0 0 8 7 L 5 7 z M 20.001953 9 C 19.089988 9.080349 18.24553 9.5028006 17.630859 10.177734 C 17.360634 10.477172 17.152332 10.80967 17 11.160156 L 17 13.107422 C 17.594256 13.778157 18.048689 14.578749 18.167969 15.513672 C 19.652567 16.61221 21.74395 16.419183 23 15.027344 L 22.705078 15.027344 C 21.813202 15.027344 20.94977 14.702006 20.294922 14.107422 C 18.79641 12.77362 18.672172 10.486461 20.001953 9 z " />
</svg>
