<?xml version="1.0" encoding="UTF-8" standalone="no"?>
<svg
   version="1.1"
   id="heat-index-perception"
   width="24"
   height="24"
   viewBox="0 0 24 24"
   xmlns="http://www.w3.org/2000/svg"
   xmlns:svg="http://www.w3.org/2000/svg">
  <desc>thermal-perception heat-index human thermometer fire</desc>
  <path d="M 6.5 2 A 2 2 0 0 0 4.5 4 A 2 2 0 0 0 6.5 6 A 2 2 0 0 0 8.5 4 A 2 2 0 0 0 6.5 2 z M 14 5 C 13 5 12.199219 5.8007814 12.199219 6.8007812 L 12.199219 13.599609 C 11.499219 14.099609 11 15 11 16 C 11 17.7 12.3 19 14 19 C 14.053125 19 14.105887 18.998605 14.158203 18.996094 C 15.780008 18.918234 17 17.646875 17 16 C 17 15 16.500781 14.099609 15.800781 13.599609 L 15.800781 6.8007812 C 15.800781 5.8007812 15 5 14 5 z M 14 6 C 14.4 6 14.800781 6.3007814 14.800781 6.8007812 L 14.800781 8 L 13.300781 8 L 13.300781 6.8007812 L 13.199219 6.8007812 C 13.199219 6.7695312 13.202051 6.7386475 13.205078 6.7089844 C 13.250488 6.2640381 13.625 6 14 6 z M 5 7 A 2 2 0 0 0 3 9 L 3 14.5 L 4.5 14.5 L 4.5 22 L 8.5 22 L 8.5 14.5 L 10 14.5 L 10 9 A 2 2 0 0 0 8 7 L 5 7 z M 20.234375 9 C 19.854441 9.091988 19.520279 9.2993731 19.236328 9.5273438 C 18.200508 10.359235 17.793335 11.828054 18.28125 13.087891 C 18.29725 13.127881 18.314453 13.166759 18.314453 13.21875 C 18.314453 13.30674 18.25381 13.385973 18.173828 13.417969 C 18.081848 13.457959 17.986143 13.435084 17.910156 13.371094 C 17.886166 13.351094 17.869516 13.332676 17.853516 13.304688 C 17.401602 12.732756 17.328865 11.911775 17.632812 11.255859 C 17.371807 11.468425 17.161233 11.741155 17 12.042969 L 17 13.482422 C 17.165672 13.644553 17.352135 13.783808 17.490234 13.970703 C 17.94581 14.578101 18.223963 15.266159 18.335938 15.970703 C 18.560281 16.067413 18.795084 16.135911 19.037109 16.166016 C 19.89296 16.274002 20.808958 16.119274 21.464844 15.527344 C 22.196716 14.86343 22.452106 13.798599 22.076172 12.886719 L 22.025391 12.783203 C 21.941391 12.599225 21.716797 12.279297 21.716797 12.279297 C 21.624817 12.159312 21.514138 12.055159 21.410156 11.951172 C 21.142192 11.711197 20.836032 11.539077 20.580078 11.287109 C 19.98418 10.703186 19.854441 9.7399047 20.234375 9 z M 19.652344 12.175781 C 19.728324 12.327761 19.810267 12.479625 19.90625 12.599609 C 20.214196 12.999558 20.696799 13.174821 20.800781 13.71875 C 20.816781 13.77474 20.826172 13.832588 20.826172 13.892578 C 20.838172 14.220537 20.693083 14.578855 20.453125 14.798828 C 20.341073 14.894628 20.157321 14.999159 20.013672 15.039062 C 19.565751 15.199041 19.11747 14.974903 18.853516 14.710938 C 19.329433 14.598952 19.613281 14.248532 19.697266 13.892578 C 19.765256 13.572619 19.637929 13.307959 19.585938 13 C 19.537948 12.704039 19.544374 12.451745 19.652344 12.175781 z " /></svg>
