<?xml version="1.0" encoding="UTF-8" standalone="no"?>
<svg
   version="1.1"
   id="thermal-perception"
   width="24"
   height="24"
   viewBox="0 0 24 24"
   xmlns="http://www.w3.org/2000/svg"
   xmlns:svg="http://www.w3.org/2000/svg">
  <desc>thermal-perception human male thermometer</desc>
  <path d="m 8.5,2.0000002 c -1.1045695,0 -2,0.8954305 -2,2 0,1.1045695 0.8954305,2 2,2 1.10457,0 2,-0.8954305 2,-2 0,-1.1045695 -0.89543,-2 -2,-2 z m 7.5,3 c -1,0 -1.800781,0.8007814 -1.800781,1.8007812 V 13.599609 C 13.499219,14.099609 13,15 13,16 c 0,1.7 1.3,3 3,3 0.05312,0 0.105887,-0.0014 0.158203,-0.0039 C 17.780008,18.91823 19,17.646875 19,16 19,15 18.500781,14.099609 17.800781,13.599609 V 6.8007814 C 17.800781,5.8007814 17,5.0000002 16,5.0000002 Z m 0,1 c 0.4,0 0.800781,0.3007814 0.800781,0.8007812 v 1.1992188 h -1.5 V 6.8007814 h -0.101562 c 0,-0.03125 0.0028,-0.062134 0.0059,-0.091797 C 15.250489,6.2640383 15.625,6.0000002 16,6.0000002 Z m -9,1 c -1.1045693,0 -1.9999998,0.8954303 -2,1.9999996 V 14.5 H 6.5 V 22 h 4 V 14.5 H 12 V 8.9999998 C 12,7.8954305 11.104569,7.0000002 10,7.0000002 Z" />
</svg>
