<?xml version="1.0" encoding="UTF-8" standalone="no"?>
<svg
   version="1.1"
   id="dew-point-perception-human"
   width="24"
   height="24"
   viewBox="0 0 24 24"
   xmlns="http://www.w3.org/2000/svg"
   xmlns:svg="http://www.w3.org/2000/svg">
  <desc>human thermometer water dew perception</desc>	
<path d="M 6.5 2 A 2 2 0 0 0 4.5 4 A 2 2 0 0 0 6.5 6 A 2 2 0 0 0 8.5 4 A 2 2 0 0 0 6.5 2 z M 14 5 C 13 5 12.199219 5.8007813 12.199219 6.8007812 L 12.199219 13.599609 C 11.499219 14.099609 11 15 11 16 C 11 17.7 12.3 19 14 19 C 14.053125 19 14.105887 18.998605 14.158203 18.996094 C 15.780008 18.918234 17 17.646875 17 16 C 17 15 16.500781 14.099609 15.800781 13.599609 L 15.800781 6.8007812 C 15.800781 5.8007812 15 5 14 5 z M 14 6 C 14.4 6 14.800781 6.3007813 14.800781 6.8007812 L 14.800781 8 L 13.300781 8 L 13.300781 6.8007812 L 13.199219 6.8007812 C 13.199219 6.7695312 13.202051 6.7386475 13.205078 6.7089844 C 13.250488 6.2640381 13.625 6 14 6 z M 5 7 A 2 2 0 0 0 3 9 L 3 14.5 L 4.5 14.5 L 4.5 22 L 8.5 22 L 8.5 14.5 L 10 14.5 L 10 9 A 2 2 0 0 0 8 7 L 5 7 z M 19.255859 9.2851562 C 19.255859 9.2851562 17 11.8256 17 13.330078 C 17.0047 13.390888 17.011874 13.451487 17.021484 13.511719 C 17.418581 13.971362 17.729274 14.510441 17.886719 15.117188 C 18.279267 15.4195 18.760396 15.584222 19.255859 15.585938 C 20.502303 15.586543 21.513199 14.576522 21.513672 13.330078 C 21.513672 11.8256 19.255859 9.2851562 19.255859 9.2851562 z " /></svg>
