<?xml version="1.0" encoding="UTF-8" standalone="no"?>
<svg
   version="1.1"
   id="thermal-perception-human-alternative"
   width="24"
   height="24"
   viewBox="0 0 24 24"
   xmlns="http://www.w3.org/2000/svg"
   xmlns:svg="http://www.w3.org/2000/svg">
  <desc>thermal-perception human thermometer sun</desc>	
  <path d="M 6.5 2 A 2 2 0 0 0 4.5 4 A 2 2 0 0 0 6.5 6 A 2 2 0 0 0 8.5 4 A 2 2 0 0 0 6.5 2 z M 14 5 C 13 5 12.199219 5.8007813 12.199219 6.8007812 L 12.199219 13.599609 C 11.499219 14.099609 11 15 11 16 C 11 17.7 12.3 19 14 19 C 14.053125 19 14.105887 18.998605 14.158203 18.996094 C 15.780008 18.918234 17 17.646875 17 16 C 17 15 16.500781 14.099609 15.800781 13.599609 L 15.800781 6.8007812 C 15.800781 5.8007812 15 5 14 5 z M 14 6 C 14.4 6 14.800781 6.3007813 14.800781 6.8007812 L 14.800781 8 L 13.300781 8 L 13.300781 6.8007812 L 13.199219 6.8007812 C 13.199219 6.7695312 13.202051 6.7386475 13.205078 6.7089844 C 13.250488 6.2640381 13.625 6 14 6 z M 5 7 A 2 2 0 0 0 3 9 L 3 14.5 L 4.5 14.5 L 4.5 22 L 8.5 22 L 8.5 14.5 L 10 14.5 L 10 9 A 2 2 0 0 0 8 7 L 5 7 z M 19.001953 8 L 17.898438 9.5800781 C 18.240436 9.4553041 18.613737 9.3867188 19.001953 9.3867188 C 19.390168 9.3867188 19.765423 9.4552891 20.107422 9.5800781 L 19.001953 8 z M 21.082031 10.144531 C 21.359327 10.380227 21.604719 10.671157 21.798828 11.003906 C 21.992934 11.341275 22.116951 11.697402 22.181641 12.0625 L 23 10.310547 L 21.082031 10.144531 z M 19.001953 10.310547 C 17.970938 10.310547 17.098309 10.98564 16.800781 11.917969 L 16.800781 13.273438 C 17.1534 13.631049 17.454968 14.043526 17.667969 14.505859 C 18.045134 14.773493 18.50427 14.931641 19.001953 14.931641 C 20.278177 14.931641 21.3125 13.897286 21.3125 12.621094 C 21.3125 11.344901 20.278177 10.310547 19.001953 10.310547 z M 22.177734 13.181641 C 22.113034 13.546741 21.987077 13.900912 21.792969 14.238281 C 21.598863 14.571029 21.354706 14.861961 21.082031 15.097656 L 22.996094 14.931641 L 22.177734 13.181641 z M 20.097656 15.652344 C 19.755657 15.77712 19.380924 15.857422 19.001953 15.857422 C 18.640809 15.857422 18.300428 15.789052 17.984375 15.683594 C 17.987975 15.723224 17.991841 15.762614 17.994141 15.802734 L 19.001953 17.242188 L 20.097656 15.652344 z " />
</svg>
