<?xml version="1.0" encoding="UTF-8" standalone="no"?>
<svg
   version="1.1"
   id="tc-thermometer-water"
   width="24"
   height="24"
   viewBox="0 0 24 24"
   xmlns="http://www.w3.org/2000/svg"
   xmlns:svg="http://www.w3.org/2000/svg">
  <defs
     id="defs7" />
  <path
     id="path2"
     style="stroke-width:1"
     d="M 8.0019531 2 C 6.3419531 2 5.0019531 3.3401576 5.0019531 5 L 5.0019531 12.998047 C 2.7919531 14.657889 2.3419531 17.788257 4.0019531 19.998047 C 5.0394531 21.379166 6.6514647 22.073332 8.2539062 21.994141 C 8.4141504 21.986221 8.5748999 21.970728 8.734375 21.947266 C 9.5317505 21.829955 10.311328 21.516748 11.001953 20.998047 C 13.211953 19.338204 13.661953 16.207837 12.001953 13.998047 C 11.721953 13.618083 11.381953 13.27802 11.001953 12.998047 L 11.001953 5 C 11.001953 3.3401576 9.6619531 2 8.0019531 2 z M 8.0019531 4 C 8.5519531 4 9.0019531 4.4500522 9.0019531 5 L 9.0019531 8 L 7.0019531 8 L 7.0019531 5 C 7.0019531 4.9312565 7.0081055 4.8637634 7.0214844 4.7988281 C 7.1151367 4.3442814 7.5207031 4 8.0019531 4 z M 16.5 7 C 16.5 7 13 10.938111 13 13.271484 A 3.5 3.5000597 0 0 0 13.056641 13.771484 C 13.404561 14.315545 13.655019 14.898259 13.808594 15.498047 A 3.5 3.5000597 0 0 0 16.5 16.771484 A 3.5 3.5000597 0 0 0 20 13.271484 C 20 10.938111 16.5 7 16.5 7 z " />
</svg>
