<?xml version="1.0" encoding="UTF-8" standalone="no"?>
<svg
   version="1.1"
   id="frost-point"
   width="24"
   height="24"
   viewBox="0 0 24 24"
   xmlns="http://www.w3.org/2000/svg"
   xmlns:svg="http://www.w3.org/2000/svg">
  <desc>thermometer snowflake</desc>
  <path d="M 9.0019531 2 C 7.3419531 2 6.0019531 3.3401576 6.0019531 5 L 6.0019531 12.998047 C 3.7919531 14.657889 3.3419531 17.788257 5.0019531 19.998047 C 6.6619531 22.207838 9.7919526 22.657889 12.001953 20.998047 C 14.211953 19.338204 14.661953 16.207837 13.001953 13.998047 C 12.721953 13.618083 12.381953 13.27802 12.001953 12.998047 L 12.001953 5 C 12.001953 3.3401576 10.661953 2 9.0019531 2 z M 9.0019531 4 C 9.5519531 4 10.001953 4.4500522 10.001953 5 L 10.001953 8 L 8.0019531 8 L 8.0019531 5 C 8.0019531 4.4500522 8.4519531 4 9.0019531 4 z M 17.304688 7 L 16.541016 7.7578125 L 17.460938 8.6757812 L 17.460938 9.890625 L 16.117188 10.664062 L 15.041016 10.056641 L 14.730469 8.8046875 L 13.699219 9.0859375 L 13.951172 10.035156 L 13.501953 10.154297 L 13.501953 11.267578 L 14.53125 10.992188 L 15.605469 11.599609 L 15.605469 13.152344 L 14.609375 13.714844 C 14.793314 14.028896 14.946429 14.355021 15.072266 14.6875 L 16.142578 14.082031 L 17.460938 14.855469 L 17.460938 16.070312 L 16.541016 16.990234 L 17.304688 17.748047 L 17.998047 17.054688 L 18.691406 17.748047 L 19.447266 16.990234 L 18.535156 16.070312 L 18.535156 14.855469 L 19.878906 14.076172 L 20.953125 14.683594 L 21.285156 15.935547 L 22.296875 15.662109 L 22.042969 14.710938 L 22.994141 14.458984 L 22.720703 13.421875 L 21.46875 13.753906 L 20.394531 13.146484 L 20.394531 11.599609 L 21.46875 10.992188 L 22.720703 11.326172 L 23 10.289062 L 22.048828 10.035156 L 22.296875 9.0859375 L 21.259766 8.8046875 L 20.925781 10.056641 L 19.851562 10.664062 L 18.535156 9.890625 L 18.535156 8.6757812 L 19.453125 7.7578125 L 18.691406 7 L 17.998047 7.6933594 L 17.304688 7 z M 17.998047 10.820312 L 19.339844 11.599609 L 19.339844 13.146484 L 17.998047 13.925781 L 16.654297 13.146484 L 16.654297 11.599609 L 17.998047 10.820312 z " />
</svg>
