<?xml version="1.0" encoding="UTF-8" standalone="no"?>
<svg
   version="1.1"
   id="tc-thermometer-sleep"
   width="24"
   height="24"
   viewBox="0 0 24 24"
   xmlns="http://www.w3.org/2000/svg"
   xmlns:svg="http://www.w3.org/2000/svg">
  <defs
     id="defs7" />
  <path
     id="path2"
     style="stroke-width:0.999995"
     d="M 7.0019531 2 C 5.3421107 2 4.0019531 3.3401576 4.0019531 5 L 4.0019531 12.998047 C 1.7921629 14.657889 1.3421107 17.788257 3.0019531 19.998047 C 4.6617955 22.207838 7.7921629 22.657889 10.001953 20.998047 C 12.211744 19.338204 12.661795 16.207837 11.001953 13.998047 C 10.721979 13.618083 10.381917 13.27802 10.001953 12.998047 L 10.001953 5 C 10.001953 3.3401576 8.6617956 2 7.0019531 2 z M 7.0019531 4 C 7.5519009 4 8.0019531 4.4500522 8.0019531 5 L 8.0019531 8 L 6.0019531 8 L 6.0019531 5 C 6.0019531 4.4500522 6.4520053 4 7.0019531 4 z M 20.273438 9 L 20.273438 9.9082031 L 21.814453 9.9082031 L 20.273438 11.726562 L 20.273438 12.636719 L 23 12.636719 L 23 11.726562 L 21.462891 11.726562 L 23 9.9082031 L 23 9 L 20.273438 9 z M 16.636719 10.818359 L 16.636719 11.726562 L 18.177734 11.726562 L 16.636719 13.544922 L 16.636719 14.455078 L 19.363281 14.455078 L 19.363281 13.544922 L 17.828125 13.544922 L 19.363281 11.726562 L 19.363281 10.818359 L 16.636719 10.818359 z M 13 12.636719 L 13 13.544922 L 14.541016 13.544922 L 13 15.363281 L 13 16.273438 L 15.726562 16.273438 L 15.726562 15.363281 L 14.191406 15.363281 L 15.726562 13.544922 L 15.726562 12.636719 L 13 12.636719 z " />
</svg>
