<?xml version="1.0" encoding="UTF-8" standalone="no"?>
<svg
   version="1.1"
   id="tc-thermometer-water-opacity"
   width="24"
   height="24"
   viewBox="0 0 24 24"
   xmlns="http://www.w3.org/2000/svg"
   xmlns:svg="http://www.w3.org/2000/svg">
  <defs
     id="defs7" />
  <path
     id="path2"
     style="stroke-width:1"
     d="M 7.0019531 2 C 5.3419531 2 4.0019531 3.3401576 4.0019531 5 L 4.0019531 12.998047 C 1.7919531 14.657889 1.3419531 17.788257 3.0019531 19.998047 C 4.6619531 22.207838 7.7919527 22.657889 10.001953 20.998047 C 12.211953 19.338204 12.661953 16.207837 11.001953 13.998047 C 10.721953 13.618083 10.381953 13.27802 10.001953 12.998047 L 10.001953 5 C 10.001953 3.3401576 8.6619531 2 7.0019531 2 z M 7.0019531 4 C 7.5519531 4 8.0019531 4.4500522 8.0019531 5 L 8.0019531 8 L 6.0019531 8 L 6.0019531 5 C 6.0019531 4.4500522 6.4519531 4 7.0019531 4 z M 18 8 C 18 8 14 12.49927 14 15.166016 C 14 17.372749 15.793333 19.167969 18 19.167969 L 18 17.833984 L 19.333984 17.833984 L 19.333984 16.5 L 18 16.5 L 18 15.166016 L 19.333984 15.166016 L 19.333984 13.833984 L 18 13.833984 L 18 12.5 L 19.333984 12.5 L 19.333984 11.166016 L 18 11.166016 L 18 9.8339844 L 19.333984 9.8339844 L 19.333984 9.6542969 C 18.600652 8.6742682 18 8 18 8 z M 19.333984 9.8339844 L 19.333984 11.166016 L 20.386719 11.166016 C 20.080051 10.692667 19.766795 10.240663 19.466797 9.8339844 L 19.333984 9.8339844 z M 19.333984 12.5 L 19.333984 13.833984 L 20.666016 13.833984 L 20.666016 12.5 L 19.333984 12.5 z M 20.666016 12.5 L 21.160156 12.5 C 21.000156 12.20666 20.839351 11.905816 20.666016 11.619141 L 20.666016 12.5 z M 20.666016 13.833984 L 20.666016 15.166016 L 22 15.166016 C 22 14.759337 21.900233 14.307331 21.740234 13.833984 L 20.666016 13.833984 z M 20.666016 15.166016 L 19.333984 15.166016 L 19.333984 16.5 L 20.666016 16.5 L 20.666016 15.166016 z M 20.666016 16.5 L 20.666016 17.833984 L 20.972656 17.833984 C 21.332656 17.447304 21.594243 17.000013 21.767578 16.5 L 20.666016 16.5 z M 20.666016 17.833984 L 19.333984 17.833984 L 19.333984 18.933594 C 19.833985 18.760254 20.279351 18.500636 20.666016 18.140625 L 20.666016 17.833984 z " />
</svg>
