<?xml version="1.0" encoding="UTF-8" standalone="no"?>
<svg
   version="1.1"
   id="dew-point-alternative"
   width="24"
   height="24"
   viewBox="0 0 24 24"
   xmlns="http://www.w3.org/2000/svg"
   xmlns:svg="http://www.w3.org/2000/svg">
  <desc>thermometer water-opacity dew</desc>
  <path d="M 9.0019531 2 C 7.3419531 2 6.0019531 3.3401576 6.0019531 5 L 6.0019531 12.998047 C 3.7919531 14.657889 3.3419531 17.788257 5.0019531 19.998047 C 6.6619531 22.207838 9.7919527 22.657889 12.001953 20.998047 C 14.211953 19.338204 14.661953 16.207837 13.001953 13.998047 C 12.721953 13.618083 12.381953 13.27802 12.001953 12.998047 L 12.001953 5 C 12.001953 3.3401576 10.661955 2 9.0019531 2 z M 9.0019531 4 C 9.5519531 4 10.001953 4.4500522 10.001953 5 L 10.001953 8 L 8.0019531 8 L 8.0019531 5 C 8.0019531 4.4500522 8.4519531 4 9.0019531 4 z M 17.5 7 C 17.5 7 14.35351 10.542379 14.029297 12.898438 C 14.090637 12.962858 14.149842 13.02946 14.203125 13.101562 C 14.882209 14.00687 15.286301 15.035711 15.431641 16.087891 C 16.01163 16.515315 16.725345 16.771484 17.5 16.771484 L 17.5 15.603516 L 18.666016 15.603516 L 18.666016 14.4375 L 17.5 14.4375 L 17.5 13.271484 L 18.666016 13.271484 L 18.666016 12.103516 L 17.5 12.103516 L 17.5 10.9375 L 18.666016 10.9375 L 18.666016 9.7714844 L 17.5 9.7714844 L 17.5 8.6035156 L 18.666016 8.6035156 L 18.666016 8.4472656 C 18.024351 7.5897404 17.5 7 17.5 7 z M 18.666016 8.6035156 L 18.666016 9.7714844 L 19.587891 9.7714844 C 19.319557 9.3573044 19.045702 8.9593599 18.783203 8.6035156 L 18.666016 8.6035156 z M 18.666016 10.9375 L 18.666016 12.103516 L 19.833984 12.103516 L 19.833984 10.9375 L 18.666016 10.9375 z M 19.833984 10.9375 L 20.265625 10.9375 C 20.125625 10.680829 19.985652 10.418808 19.833984 10.167969 L 19.833984 10.9375 z M 19.833984 12.103516 L 19.833984 13.271484 L 21 13.271484 C 21 12.91564 20.91344 12.517693 20.773438 12.103516 L 19.833984 12.103516 z M 19.833984 13.271484 L 18.666016 13.271484 L 18.666016 14.4375 L 19.833984 14.4375 L 19.833984 13.271484 z M 19.833984 14.4375 L 19.833984 15.603516 L 20.101562 15.603516 C 20.416563 15.265172 20.643254 14.875013 20.794922 14.4375 L 19.833984 14.4375 z M 19.833984 15.603516 L 18.666016 15.603516 L 18.666016 16.566406 C 19.103517 16.414733 19.495652 16.188058 19.833984 15.873047 L 19.833984 15.603516 z " />
</svg>
