<?xml version="1.0" encoding="UTF-8" standalone="no"?>
<svg
   version="1.1"
   id="mdi-thermometer-bluetooth"
   width="24"
   height="24"
   viewBox="0 0 24 24"
   xmlns="http://www.w3.org/2000/svg"
   xmlns:svg="http://www.w3.org/2000/svg">
  <defs
     id="defs7" />
  <path
     id="path2"
     style="stroke-width:1"
     d="M 8.0019531 2 C 6.3419531 2 5.0019531 3.3401576 5.0019531 5 L 5.0019531 12.998047 C 2.7919531 14.657889 2.3419531 17.788257 4.0019531 19.998047 C 5.6619531 22.207838 8.7919527 22.657889 11.001953 20.998047 C 13.211953 19.338204 13.661953 16.207837 12.001953 13.998047 C 11.721953 13.618083 11.381953 13.27802 11.001953 12.998047 L 11.001953 5 C 11.001953 3.3401576 9.6619531 2 8.0019531 2 z M 8.0019531 4 C 8.5519531 4 9.0019531 4.4500522 9.0019531 5 L 9.0019531 8 L 7.0019531 8 L 7.0019531 5 C 7.0019531 4.4500522 7.4519531 4 8.0019531 4 z M 18 6 C 18 6 14 10.49927 14 13.166016 C 14 15.372749 15.793333 17.167969 18 17.167969 L 18 15.833984 L 19.333984 15.833984 L 19.333984 14.5 L 18 14.5 L 18 13.166016 L 19.333984 13.166016 L 19.333984 11.833984 L 18 11.833984 L 18 10.5 L 19.333984 10.5 L 19.333984 9.1660156 L 18 9.1660156 L 18 7.8339844 L 19.333984 7.8339844 L 19.333984 7.6542969 C 18.600652 6.6742682 18 6 18 6 z M 19.333984 7.8339844 L 19.333984 9.1660156 L 20.386719 9.1660156 C 20.080051 8.6926668 19.766795 8.2406636 19.466797 7.8339844 L 19.333984 7.8339844 z M 19.333984 10.5 L 19.333984 11.833984 L 20.666016 11.833984 L 20.666016 10.5 L 19.333984 10.5 z M 20.666016 10.5 L 21.160156 10.5 C 21.000156 10.206661 20.839351 9.9058143 20.666016 9.6191406 L 20.666016 10.5 z M 20.666016 11.833984 L 20.666016 13.166016 L 22 13.166016 C 22 12.759337 21.900233 12.30733 21.740234 11.833984 L 20.666016 11.833984 z M 20.666016 13.166016 L 19.333984 13.166016 L 19.333984 14.5 L 20.666016 14.5 L 20.666016 13.166016 z M 20.666016 14.5 L 20.666016 15.833984 L 20.972656 15.833984 C 21.332656 15.447304 21.594243 15.000014 21.767578 14.5 L 20.666016 14.5 z M 20.666016 15.833984 L 19.333984 15.833984 L 19.333984 16.933594 C 19.833985 16.760253 20.279351 16.500637 20.666016 16.140625 L 20.666016 15.833984 z " />
</svg>
