<?xml version="1.0" encoding="UTF-8" standalone="no"?>
<svg
   version="1.1"
   id="mdi-thermometer-bluetooth"
   width="24"
   height="24"
   viewBox="0 0 24 24"
   sodipodi:docname="thermometer-dew.svg"
   inkscape:version="1.1.1 (3bf5ae0d25, 2021-09-20, custom)"
   xmlns:inkscape="http://www.inkscape.org/namespaces/inkscape"
   xmlns:sodipodi="http://sodipodi.sourceforge.net/DTD/sodipodi-0.dtd"
   xmlns="http://www.w3.org/2000/svg"
   xmlns:svg="http://www.w3.org/2000/svg">
  <defs
     id="defs7" />
  <sodipodi:namedview
     id="namedview5"
     pagecolor="#ffffff"
     bordercolor="#666666"
     borderopacity="1.0"
     inkscape:pageshadow="2"
     inkscape:pageopacity="0.0"
     inkscape:pagecheckerboard="0"
     showgrid="false"
     inkscape:zoom="29.958333"
     inkscape:cx="5.6578581"
     inkscape:cy="13.735744"
     inkscape:window-width="2752"
     inkscape:window-height="1083"
     inkscape:window-x="0"
     inkscape:window-y="0"
     inkscape:window-maximized="1"
     inkscape:current-layer="mdi-thermometer-bluetooth" />
  <path
     d="M 11,13 V 5 C 11,3.34 9.66,2 8,2 6.34,2 5,3.34 5,5 v 8 c -2.21,1.66 -2.66,4.79 -1,7 1.66,2.21 4.79,2.66 7,1 2.21,-1.66 2.66,-4.79 1,-7 -0.28,-0.38 -0.62,-0.72 -1,-1 M 8,4 C 8.55,4 9,4.45 9,5 V 8 H 7 V 5 C 7,4.45 7.45,4 8,4"
     id="path2"
     sodipodi:nodetypes="cssscsscccsccsc" />
  <path
     d="m 20.324253,14.276119 v -1.074627 h 0.865075 c 0.128955,0.381492 0.209552,0.746866 0.209552,1.074627 h -1.074627 m -0.225671,-3.22388 C 19.851418,10.670746 19.59888,10.305373 19.357089,9.9776117 h -0.107463 v 1.0746273 h 0.848956 m 0.225671,2.149253 v -1.074626 h -1.074627 v 1.074626 h 1.074627 m 0,-1.78388 v 0.709254 h 0.397612 C 20.59291,11.890448 20.463955,11.648657 20.324253,11.417612 M 18.175,15.350746 v -1.074627 h 1.074626 V 13.201492 H 18.175 v -1.074626 h 1.074626 V 11.052239 H 18.175 V 9.9776117 h 1.074626 V 9.8325371 C 18.658582,9.0426863 18.175,8.4999997 18.175,8.4999997 c 0,0 -3.223881,3.6268663 -3.223881,5.7761193 0,1.778507 1.445373,3.223881 3.223881,3.223881 v -1.074627 h 1.074626 V 15.350746 H 18.175 m 1.074626,1.961194 c 0.402986,-0.139702 0.762986,-0.349254 1.074627,-0.639403 v -0.247164 h -1.074627 v 0.886567 m 0,-1.961194 h 1.074627 v -1.074627 h -1.074627 v 1.074627 m 1.074627,1.074627 h 0.247165 c 0.290149,-0.311642 0.499701,-0.671642 0.639403,-1.074627 h -0.886568 z"
     id="path1502"
     style="stroke-width:0.999999" />
</svg>
