<?xml version="1.0" encoding="UTF-8" standalone="no"?>
<svg
   version="1.1"
   id="mdi-thermometer-bluetooth"
   width="24"
   height="24"
   viewBox="0 0 24 24"
   sodipodi:docname="thermometer-sleep.svg"
   inkscape:version="1.1.1 (3bf5ae0d25, 2021-09-20, custom)"
   xmlns:inkscape="http://www.inkscape.org/namespaces/inkscape"
   xmlns:sodipodi="http://sodipodi.sourceforge.net/DTD/sodipodi-0.dtd"
   xmlns="http://www.w3.org/2000/svg"
   xmlns:svg="http://www.w3.org/2000/svg">
  <defs
     id="defs7" />
  <sodipodi:namedview
     id="namedview5"
     pagecolor="#ffffff"
     bordercolor="#666666"
     borderopacity="1.0"
     inkscape:pageshadow="2"
     inkscape:pageopacity="0.0"
     inkscape:pagecheckerboard="0"
     showgrid="false"
     inkscape:zoom="7.4895833"
     inkscape:cx="-58.681503"
     inkscape:cy="-11.282337"
     inkscape:window-width="2752"
     inkscape:window-height="1083"
     inkscape:window-x="0"
     inkscape:window-y="0"
     inkscape:window-maximized="1"
     inkscape:current-layer="mdi-thermometer-bluetooth" />
  <path
     d="M 11,13 V 5 C 11,3.34 9.66,2 8,2 6.34,2 5,3.34 5,5 v 8 c -2.21,1.66 -2.66,4.79 -1,7 1.66,2.21 4.79,2.66 7,1 2.21,-1.66 2.66,-4.79 1,-7 -0.28,-0.38 -0.62,-0.72 -1,-1 M 8,4 C 8.55,4 9,4.45 9,5 V 8 H 7 V 5 C 7,4.45 7.45,4 8,4"
     id="path2"
     sodipodi:nodetypes="cssscsscccsccsc" />
  <path
     d="m 22.987499,13 h -2.625 v -0.875 l 1.483124,-1.75 H 20.362499 V 9.4999997 h 2.625 V 10.375 l -1.478751,1.75 h 1.478751 V 13 m -3.500001,1.75 h -2.625 v -0.875 l 1.483126,-1.75 H 16.862498 V 11.25 h 2.625 v 0.875 l -1.478749,1.75 h 1.478749 V 14.75 M 15.9875,16.5 h -2.625 v -0.875 l 1.483124,-1.75 H 13.362499 V 13 h 2.625 v 0.875 l -1.478751,1.75 h 1.478751 z"
     id="path822"
     style="stroke-width:0.999997" />
</svg>
