<?xml version="1.0" encoding="UTF-8" standalone="no"?>
<svg
   version="1.1"
   id="mdi-thermometer-bluetooth"
   width="24"
   height="24"
   viewBox="0 0 24 24"
   xmlns="http://www.w3.org/2000/svg"
   xmlns:svg="http://www.w3.org/2000/svg">
  <defs
     id="defs7" />
  <path
     id="path2"
     style="stroke-width:0.999995"
     d="M 8.0019531 2 C 6.3421107 2 5.0019531 3.3401576 5.0019531 5 L 5.0019531 12.998047 C 2.7921629 14.657889 2.3421107 17.788257 4.0019531 19.998047 C 5.6617955 22.207838 8.7921629 22.657889 11.001953 20.998047 C 13.211744 19.338204 13.661795 16.207837 12.001953 13.998047 C 11.721979 13.618083 11.381917 13.27802 11.001953 12.998047 L 11.001953 5 C 11.001953 3.3401576 9.6617956 2 8.0019531 2 z M 8.0019531 4 C 8.5519009 4 9.0019531 4.4500522 9.0019531 5 L 9.0019531 8 L 7.0019531 8 L 7.0019531 5 C 7.0019531 4.4500522 7.4520053 4 8.0019531 4 z M 20.273438 7 L 20.273438 7.9082031 L 21.814453 7.9082031 L 20.273438 9.7265625 L 20.273438 10.636719 L 23 10.636719 L 23 9.7265625 L 21.462891 9.7265625 L 23 7.9082031 L 23 7 L 20.273438 7 z M 16.636719 8.8183594 L 16.636719 9.7265625 L 18.177734 9.7265625 L 16.636719 11.544922 L 16.636719 12.455078 L 19.363281 12.455078 L 19.363281 11.544922 L 17.828125 11.544922 L 19.363281 9.7265625 L 19.363281 8.8183594 L 16.636719 8.8183594 z M 13 10.636719 L 13 11.544922 L 14.541016 11.544922 L 13 13.363281 L 13 14.273438 L 15.726562 14.273438 L 15.726562 13.363281 L 14.191406 13.363281 L 15.726562 11.544922 L 15.726562 10.636719 L 13 10.636719 z " />
</svg>
