<?xml version="1.0" encoding="UTF-8" standalone="no"?>
<svg
   version="1.1"
   id="tc-thermometer-water-opacity"
   width="24"
   height="24"
   viewBox="0 0 24 24"
   xmlns="http://www.w3.org/2000/svg"
   xmlns:svg="http://www.w3.org/2000/svg">
  <defs
     id="defs7" />
  <path
     id="path2"
     style="stroke-width:1"
     d="M 8.0019531 2 C 6.3419531 2 5.0019531 3.3401576 5.0019531 5 L 5.0019531 12.998047 C 2.7919531 14.657889 2.3419531 17.788257 4.0019531 19.998047 C 5.6619531 22.207838 8.7919527 22.657889 11.001953 20.998047 C 13.211953 19.338204 13.661953 16.207837 12.001953 13.998047 C 11.721953 13.618083 11.381953 13.27802 11.001953 12.998047 L 11.001953 5 C 11.001953 3.3401576 9.6619531 2 8.0019531 2 z M 8.0019531 4 C 8.5519531 4 9.0019531 4.4500522 9.0019531 5 L 9.0019531 8 L 7.0019531 8 L 7.0019531 5 C 7.0019531 4.4500522 7.4519531 4 8.0019531 4 z M 16.5 7 C 16.5 7 13 10.938081 13 13.271484 C 13 13.42942 13.012868 13.583893 13.033203 13.736328 C 13.394968 14.293365 13.653861 14.891593 13.810547 15.507812 C 14.452925 16.279165 15.41938 16.771484 16.5 16.771484 L 16.5 15.603516 L 17.666016 15.603516 L 17.666016 14.4375 L 16.5 14.4375 L 16.5 13.271484 L 17.666016 13.271484 L 17.666016 12.103516 L 16.5 12.103516 L 16.5 10.9375 L 17.666016 10.9375 L 17.666016 9.7714844 L 16.5 9.7714844 L 16.5 8.6035156 L 17.666016 8.6035156 L 17.666016 8.4472656 C 17.024351 7.5897404 16.5 7 16.5 7 z M 17.666016 8.6035156 L 17.666016 9.7714844 L 18.587891 9.7714844 C 18.319557 9.3573044 18.045702 8.9593599 17.783203 8.6035156 L 17.666016 8.6035156 z M 17.666016 10.9375 L 17.666016 12.103516 L 18.833984 12.103516 L 18.833984 10.9375 L 17.666016 10.9375 z M 18.833984 10.9375 L 19.265625 10.9375 C 19.125625 10.680829 18.985652 10.418808 18.833984 10.167969 L 18.833984 10.9375 z M 18.833984 12.103516 L 18.833984 13.271484 L 20 13.271484 C 20 12.91564 19.913436 12.517693 19.773438 12.103516 L 18.833984 12.103516 z M 18.833984 13.271484 L 17.666016 13.271484 L 17.666016 14.4375 L 18.833984 14.4375 L 18.833984 13.271484 z M 18.833984 14.4375 L 18.833984 15.603516 L 19.101562 15.603516 C 19.416563 15.265172 19.643254 14.875013 19.794922 14.4375 L 18.833984 14.4375 z M 18.833984 15.603516 L 17.666016 15.603516 L 17.666016 16.566406 C 18.103517 16.414733 18.495652 16.188058 18.833984 15.873047 L 18.833984 15.603516 z " />
</svg>
