<?xml version="1.0" encoding="UTF-8" standalone="no"?>
<svg
   version="1.1"
   id="mdi-thermometer-bluetooth"
   width="24"
   height="24"
   viewBox="0 0 24 24"
   xmlns="http://www.w3.org/2000/svg"
   xmlns:svg="http://www.w3.org/2000/svg">
  <defs
     id="defs7" />
  <path
     id="path2"
     style="stroke-width:1"
     d="M 8.0019531 2 C 6.3419531 2 5.0019531 3.3401576 5.0019531 5 L 5.0019531 12.998047 C 2.7919531 14.657889 2.3419531 17.788257 4.0019531 19.998047 C 5.6619531 22.207838 8.7919527 22.657889 11.001953 20.998047 C 13.211953 19.338204 13.661953 16.207837 12.001953 13.998047 C 11.721953 13.618083 11.381953 13.27802 11.001953 12.998047 L 11.001953 5 C 11.001953 3.3401576 9.6619531 2 8.0019531 2 z M 8.0019531 4 C 8.5519531 4 9.0019531 4.4500522 9.0019531 5 L 9.0019531 8 L 7.0019531 8 L 7.0019531 5 C 7.0019531 4.4500522 7.4519531 4 8.0019531 4 z M 16.304688 5 L 15.541016 5.7578125 L 16.460938 6.6757812 L 16.460938 7.890625 L 15.117188 8.6640625 L 14.041016 8.0566406 L 13.730469 6.8046875 L 12.699219 7.0859375 L 12.951172 8.0351562 L 12 8.2890625 L 12.279297 9.3261719 L 13.53125 8.9921875 L 14.605469 9.5996094 L 14.605469 11.152344 L 13.53125 11.759766 L 12.279297 11.427734 L 12 12.464844 L 12.951172 12.716797 L 12.699219 13.662109 L 13.736328 13.941406 L 14.068359 12.689453 L 15.142578 12.082031 L 16.460938 12.855469 L 16.460938 14.070312 L 15.541016 14.990234 L 16.304688 15.748047 L 16.998047 15.054688 L 17.691406 15.748047 L 18.447266 14.990234 L 17.535156 14.070312 L 17.535156 12.855469 L 18.878906 12.076172 L 19.953125 12.683594 L 20.285156 13.935547 L 21.296875 13.662109 L 21.042969 12.710938 L 21.994141 12.458984 L 21.720703 11.421875 L 20.46875 11.753906 L 19.394531 11.146484 L 19.394531 9.5996094 L 20.46875 8.9921875 L 21.720703 9.3261719 L 22 8.2890625 L 21.048828 8.0351562 L 21.296875 7.0859375 L 20.259766 6.8046875 L 19.925781 8.0566406 L 18.851562 8.6640625 L 17.535156 7.890625 L 17.535156 6.6757812 L 18.453125 5.7578125 L 17.691406 5 L 16.998047 5.6933594 L 16.304688 5 z M 16.998047 8.8203125 L 18.339844 9.5996094 L 18.339844 11.146484 L 16.998047 11.925781 L 15.654297 11.146484 L 15.654297 9.5996094 L 16.998047 8.8203125 z " />
</svg>
