<?xml version="1.0" encoding="UTF-8" standalone="no"?>
<svg
   version="1.1"
   id="tc-thermometer-snowflake"
   width="24"
   height="24"
   viewBox="0 0 24 24"
   xmlns="http://www.w3.org/2000/svg"
   xmlns:svg="http://www.w3.org/2000/svg">
  <defs
     id="defs7" />
  <path
     id="path2"
     style="stroke-width:1"
     d="M 7.0019531 2 C 5.3419531 2 4.0019531 3.3401576 4.0019531 5 L 4.0019531 12.998047 C 1.7919531 14.657889 1.3419531 17.788257 3.0019531 19.998047 C 4.6619531 22.207838 7.7919527 22.657889 10.001953 20.998047 C 12.211953 19.338204 12.661953 16.207837 11.001953 13.998047 C 10.721953 13.618083 10.381953 13.27802 10.001953 12.998047 L 10.001953 5 C 10.001953 3.3401576 8.6619531 2 7.0019531 2 z M 7.0019531 4 C 7.5519531 4 8.0019531 4.4500522 8.0019531 5 L 8.0019531 8 L 6.0019531 8 L 6.0019531 5 C 6.0019531 4.4500522 6.4519531 4 7.0019531 4 z M 17.304688 8 L 16.541016 8.7578125 L 17.460938 9.6757812 L 17.460938 10.890625 L 16.117188 11.664062 L 15.041016 11.056641 L 14.730469 9.8046875 L 13.699219 10.083984 L 13.951172 11.035156 L 13 11.289062 L 13.279297 12.326172 L 14.53125 11.992188 L 15.605469 12.599609 L 15.605469 14.152344 L 14.53125 14.759766 L 13.279297 14.425781 L 13 15.462891 L 13.951172 15.716797 L 13.699219 16.662109 L 14.736328 16.941406 L 15.068359 15.689453 L 16.142578 15.082031 L 17.460938 15.855469 L 17.460938 17.070312 L 16.541016 17.990234 L 17.304688 18.746094 L 17.998047 18.054688 L 18.691406 18.746094 L 19.447266 17.990234 L 18.535156 17.070312 L 18.535156 15.855469 L 19.878906 15.076172 L 20.953125 15.683594 L 21.285156 16.935547 L 22.296875 16.662109 L 22.042969 15.710938 L 22.994141 15.458984 L 22.720703 14.421875 L 21.46875 14.753906 L 20.394531 14.146484 L 20.394531 12.599609 L 21.46875 11.992188 L 22.720703 12.326172 L 23 11.289062 L 22.048828 11.035156 L 22.296875 10.083984 L 21.259766 9.8046875 L 20.925781 11.056641 L 19.851562 11.664062 L 18.535156 10.890625 L 18.535156 9.6757812 L 19.453125 8.7578125 L 18.691406 8 L 17.998047 8.6933594 L 17.304688 8 z M 17.998047 11.820312 L 19.339844 12.599609 L 19.339844 14.146484 L 17.998047 14.925781 L 16.654297 14.146484 L 16.654297 12.599609 L 17.998047 11.820312 z " />
</svg>
