<?xml version="1.0" encoding="UTF-8" standalone="no"?>
<svg
   version="1.1"
   id="dew-point"
   width="24"
   height="24"
   viewBox="0 0 24 24"
   xmlns="http://www.w3.org/2000/svg"
   xmlns:svg="http://www.w3.org/2000/svg">
  <desc>thermometer water dew</desc>
  <path d="M 9.0019531 2 C 7.3419531 2 6.0019531 3.3401576 6.0019531 5 L 6.0019531 12.998047 C 3.7919531 14.657889 3.3419531 17.788257 5.0019531 19.998047 C 6.0394531 21.379166 7.6514643 22.073332 9.2539062 21.994141 C 9.4141503 21.986241 9.574899 21.970726 9.734375 21.947266 C 10.53175 21.829955 11.311328 21.516748 12.001953 20.998047 C 14.211953 19.338204 14.661953 16.207837 13.001953 13.998047 C 12.721953 13.618083 12.381953 13.27802 12.001953 12.998047 L 12.001953 5 C 12.001953 3.3401576 10.661954 2 9.0019531 2 z M 9.0019531 4 C 9.5519531 4 10.001953 4.4500522 10.001953 5 L 10.001953 8 L 8.0019531 8 L 8.0019531 5 C 8.0019531 4.931256 8.0080544 4.8637634 8.0214844 4.7988281 C 8.1151344 4.3442814 8.5207031 4 9.0019531 4 z M 17.5 7 C 17.5 7 14.35351 10.542402 14.029297 12.898438 C 14.090637 12.962858 14.149842 13.02946 14.203125 13.101562 C 14.881334 14.005703 15.283868 15.033219 15.429688 16.083984 C 16.023524 16.522682 16.747091 16.769541 17.5 16.771484 C 19.432973 16.771484 20.999967 15.20449 21 13.271484 C 21 10.938111 17.5 7 17.5 7 z " />
</svg>
