<?xml version="1.0" encoding="UTF-8" standalone="no"?>
<svg
   version="1.1"
   id="mdi-thermometer-bluetooth"
   width="24"
   height="24"
   viewBox="0 0 24 24"
   xmlns="http://www.w3.org/2000/svg"
   xmlns:svg="http://www.w3.org/2000/svg">
  <defs
     id="defs7" />
  <path
     id="path2"
     style="stroke-width:1"
     d="M 8.0019531 2 C 6.3419531 2 5.0019531 3.3401576 5.0019531 5 L 5.0019531 12.998047 C 2.7919531 14.657889 2.3419531 17.788257 4.0019531 19.998047 C 5.6619531 22.207838 8.7919527 22.657889 11.001953 20.998047 C 13.211953 19.338204 13.661953 16.207837 12.001953 13.998047 C 11.721953 13.618083 11.381953 13.27802 11.001953 12.998047 L 11.001953 5 C 11.001953 3.3401576 9.6619531 2 8.0019531 2 z M 8.0019531 4 C 8.5519531 4 9.0019531 4.4500522 9.0019531 5 L 9.0019531 8 L 7.0019531 8 L 7.0019531 5 C 7.0019531 4.4500522 7.4519531 4 8.0019531 4 z M 16.304688 7 L 15.541016 7.7578125 L 16.460938 8.6757812 L 16.460938 9.890625 L 15.117188 10.664062 L 14.041016 10.056641 L 13.730469 8.8046875 L 12.699219 9.0859375 L 12.951172 10.035156 L 12 10.289062 L 12.279297 11.326172 L 13.53125 10.992188 L 14.605469 11.599609 L 14.605469 13.152344 L 13.53125 13.759766 L 14.068359 14.689453 L 15.142578 14.082031 L 16.460938 14.855469 L 16.460938 16.070312 L 15.541016 16.990234 L 16.304688 17.748047 L 16.998047 17.054688 L 17.691406 17.748047 L 18.447266 16.990234 L 17.535156 16.070312 L 17.535156 14.855469 L 18.878906 14.076172 L 19.953125 14.683594 L 20.285156 15.935547 L 21.296875 15.662109 L 21.042969 14.710938 L 21.994141 14.458984 L 21.720703 13.421875 L 20.46875 13.753906 L 19.394531 13.146484 L 19.394531 11.599609 L 20.46875 10.992188 L 21.720703 11.326172 L 22 10.289062 L 21.048828 10.035156 L 21.296875 9.0859375 L 20.259766 8.8046875 L 19.925781 10.056641 L 18.851562 10.664062 L 17.535156 9.890625 L 17.535156 8.6757812 L 18.453125 7.7578125 L 17.691406 7 L 16.998047 7.6933594 L 16.304688 7 z M 16.998047 10.820312 L 18.339844 11.599609 L 18.339844 13.146484 L 16.998047 13.925781 L 15.654297 13.146484 L 15.654297 11.599609 L 16.998047 10.820312 z " />
</svg>
