<?xml version="1.0" encoding="UTF-8" standalone="no"?>
<svg
   version="1.1"
   id="mdi-thermometer-bluetooth"
   width="24"
   height="24"
   viewBox="0 0 24 24"
   sodipodi:docname="thermometer-fire.svg"
   inkscape:version="1.1.1 (3bf5ae0d25, 2021-09-20, custom)"
   xmlns:inkscape="http://www.inkscape.org/namespaces/inkscape"
   xmlns:sodipodi="http://sodipodi.sourceforge.net/DTD/sodipodi-0.dtd"
   xmlns="http://www.w3.org/2000/svg"
   xmlns:svg="http://www.w3.org/2000/svg">
  <defs
     id="defs7" />
  <sodipodi:namedview
     id="namedview5"
     pagecolor="#ffffff"
     bordercolor="#666666"
     borderopacity="1.0"
     inkscape:pageshadow="2"
     inkscape:pageopacity="0.0"
     inkscape:pagecheckerboard="0"
     showgrid="false"
     inkscape:zoom="7.4895833"
     inkscape:cx="17.023644"
     inkscape:cy="-15.154381"
     inkscape:window-width="2752"
     inkscape:window-height="1083"
     inkscape:window-x="0"
     inkscape:window-y="0"
     inkscape:window-maximized="1"
     inkscape:current-layer="mdi-thermometer-bluetooth" />
  <path
     d="M 11,13 V 5 C 11,3.34 9.66,2 8,2 6.34,2 5,3.34 5,5 v 8 c -2.21,1.66 -2.66,4.79 -1,7 1.66,2.21 4.79,2.66 7,1 2.21,-1.66 2.66,-4.79 1,-7 -0.28,-0.38 -0.62,-0.72 -1,-1 M 8,4 C 8.55,4 9,4.45 9,5 V 8 H 7 V 5 C 7,4.45 7.45,4 8,4"
     id="path2"
     sodipodi:nodetypes="cssscsscccsccsc" />
  <path
     d="M 21.009973,12.6002 C 20.894994,12.450227 20.75502,12.320251 20.625044,12.190275 20.290105,11.89033 19.910174,11.675369 19.590233,11.360427 18.845369,10.63056 18.6804,9.4257812 19.155313,8.5009502 c -0.474913,0.114979 -0.889837,0.374932 -1.244772,0.65988 -1.294763,1.0398088 -1.80467,2.8744728 -1.194782,4.4491848 0.02,0.04999 0.03999,0.09998 0.03999,0.16497 0,0.10998 -0.07499,0.209961 -0.174968,0.249954 -0.114979,0.04999 -0.234957,0.02 -0.329939,-0.05999 -0.02999,-0.025 -0.04999,-0.04999 -0.06999,-0.08498 -0.564896,-0.714869 -0.65488,-1.739681 -0.274949,-2.559531 -0.834847,0.679876 -1.289764,1.829665 -1.224776,2.914466 0.02999,0.249955 0.05999,0.499909 0.144973,0.749863 0.06999,0.299945 0.204963,0.59989 0.354935,0.864842 0.539902,0.864841 1.47473,1.484728 2.479546,1.609705 1.069804,0.134975 2.214595,-0.05999 3.034445,-0.799854 0.914832,-0.829848 1.234774,-2.159604 0.76486,-3.299395 l -0.06499,-0.129977 c -0.104981,-0.229957 -0.38493,-0.629884 -0.38493,-0.629884 m -1.579711,3.149423 c -0.139974,0.119978 -0.369932,0.249954 -0.549899,0.299945 -0.559897,0.199964 -1.119795,-0.07999 -1.449735,-0.409925 0.594892,-0.139974 0.949827,-0.579894 1.054807,-1.024812 0.08499,-0.399927 -0.07499,-0.729866 -0.139974,-1.114796 -0.05999,-0.369932 -0.04999,-0.684875 0.08498,-1.029811 0.09498,0.189965 0.194965,0.37993 0.314943,0.529903 0.384929,0.499908 0.989818,0.719868 1.119795,1.399743 0.02,0.06999 0.02999,0.139975 0.02999,0.214961 0.015,0.409925 -0.16497,0.859842 -0.464915,1.134792 z"
     id="path2-6"
     style="stroke-width:1" />
</svg>
