<?xml version="1.0" encoding="UTF-8" standalone="no"?>
<svg
   version="1.1"
   id="tc-thermometer-water"
   width="24"
   height="24"
   viewBox="0 0 24 24"
   xmlns="http://www.w3.org/2000/svg"
   xmlns:svg="http://www.w3.org/2000/svg">
  <defs
     id="defs7" />
  <path
     id="path2"
     style="stroke-width:1"
     d="M 7.0019531 2 C 5.3419531 2 4.0019531 3.3401576 4.0019531 5 L 4.0019531 12.998047 C 1.7919531 14.657889 1.3419531 17.788257 3.0019531 19.998047 C 4.6619531 22.207838 7.7919527 22.657889 10.001953 20.998047 C 12.211953 19.338204 12.661953 16.207837 11.001953 13.998047 C 10.721953 13.618083 10.381953 13.27802 10.001953 12.998047 L 10.001953 5 C 10.001953 3.3401576 8.6619531 2 7.0019531 2 z M 7.0019531 4 C 7.5519531 4 8.0019531 4.4500522 8.0019531 5 L 8.0019531 8 L 6.0019531 8 L 6.0019531 5 C 6.0019531 4.4500522 6.4519531 4 7.0019531 4 z M 18 8 C 18 8 14 12.499349 14 15.166016 A 4 4 0 0 0 18 19.166016 A 4 4 0 0 0 22 15.166016 C 22 12.499349 18 8 18 8 z " />
</svg>
