<?xml version="1.0" encoding="UTF-8" standalone="no"?>
<svg
   version="1.1"
   id="simmer-index"
   width="24"
   height="24"
   viewBox="0 0 24 24"
   xmlns="http://www.w3.org/2000/svg"
   xmlns:svg="http://www.w3.org/2000/svg">
  <desc>thermometer power-sleep</desc>
  <path d="M 9.0019531 2 C 7.3421111 2 6.0019531 3.3401576 6.0019531 5 L 6.0019531 12.998047 C 3.7921631 14.657889 3.3421111 17.788257 5.0019531 19.998047 C 6.6617961 22.207838 9.792163 22.657889 12.001953 20.998047 C 14.211744 19.338204 14.661795 16.207837 13.001953 13.998047 C 12.721979 13.618083 12.381917 13.27802 12.001953 12.998047 L 12.001953 5 C 12.001953 3.3401576 10.661796 2 9.0019531 2 z M 9.0019531 4 C 9.5519011 4 10.001953 4.4500522 10.001953 5 L 10.001953 8 L 8.0019531 8 L 8.0019531 5 C 8.0019531 4.4500522 8.4520061 4 9.0019531 4 z M 17.71875 6 C 16.415926 6.1147848 15.210143 6.7174484 14.332031 7.6816406 C 13.988023 8.0628337 13.71212 8.4809915 13.501953 8.921875 L 13.501953 12.402344 C 13.738625 12.633958 14.005842 12.834572 14.203125 13.101562 C 14.743615 13.822173 15.108178 14.622464 15.308594 15.449219 C 17.412971 16.851161 20.264076 16.532943 22 14.609375 L 21.580078 14.609375 C 20.305953 14.609375 19.072228 14.144327 18.136719 13.294922 C 15.995957 11.389443 15.819039 8.1235162 17.71875 6 z " />
</svg>
