<?xml version="1.0" encoding="UTF-8" standalone="no"?>
<svg
   version="1.1"
   id="tc-thermometer-fire"
   width="24"
   height="24"
   viewBox="0 0 24 24"
   xmlns="http://www.w3.org/2000/svg"
   xmlns:svg="http://www.w3.org/2000/svg">
  <defs
     id="defs7" />
  <path
     id="path2"
     style="stroke-width:0.999995"
     d="M 7.0019531 2 C 5.3421107 2 4.0019531 3.3401576 4.0019531 5 L 4.0019531 12.998047 C 1.7921629 14.657889 1.3421107 17.788257 3.0019531 19.998047 C 4.6617955 22.207838 7.7921629 22.657889 10.001953 20.998047 C 12.211744 19.338204 12.661795 16.207837 11.001953 13.998047 C 10.721979 13.618083 10.381917 13.27802 10.001953 12.998047 L 10.001953 5 C 10.001953 3.3401576 8.6617956 2 7.0019531 2 z M 7.0019531 4 C 7.5519009 4 8.0019531 4.4500522 8.0019531 5 L 8.0019531 8 L 6.0019531 8 L 6.0019531 5 C 6.0019531 4.4500522 6.4520053 4 7.0019531 4 z M 19.121094 8 C 18.578337 8.1314103 18.102906 8.428237 17.697266 8.7539062 C 16.217537 9.9423112 15.635016 12.040093 16.332031 13.839844 C 16.354891 13.896974 16.378906 13.953066 16.378906 14.027344 C 16.378906 14.153042 16.291997 14.266793 16.177734 14.3125 C 16.046329 14.36963 15.909332 14.335561 15.800781 14.244141 C 15.766511 14.215571 15.743563 14.188428 15.720703 14.148438 C 15.075108 13.331409 14.972043 12.159669 15.40625 11.222656 C 14.452139 11.999692 13.93354 13.312906 14.007812 14.552734 C 14.042082 14.83841 14.074753 15.124481 14.171875 15.410156 C 14.251865 15.752965 14.40673 16.095624 14.578125 16.398438 C 15.195157 17.386872 16.263748 18.095443 17.412109 18.238281 C 18.634742 18.392545 19.943888 18.16982 20.880859 17.324219 C 21.926381 16.375779 22.29095 14.85541 21.753906 13.552734 L 21.679688 13.404297 C 21.559708 13.141477 21.240234 12.685547 21.240234 12.685547 C 21.108828 12.514142 20.949325 12.365348 20.800781 12.216797 C 20.417993 11.873988 19.982834 11.627528 19.617188 11.267578 C 18.765915 10.433408 18.578337 9.0569967 19.121094 8 z M 18.291016 12.537109 C 18.399565 12.754221 18.515227 12.971173 18.652344 13.142578 C 19.092263 13.713927 19.783097 13.965154 19.931641 14.742188 C 19.954501 14.822178 19.966797 14.902579 19.966797 14.988281 C 19.983937 15.456787 19.776388 15.970913 19.433594 16.285156 C 19.273522 16.42202 19.011853 16.569947 18.806641 16.626953 C 18.166759 16.855493 17.525512 16.53529 17.148438 16.158203 C 17.828315 15.998226 18.235492 15.496781 18.355469 14.988281 C 18.452599 14.531201 18.269584 14.15283 18.195312 13.712891 C 18.126752 13.290093 18.136766 12.931339 18.291016 12.537109 z " />
</svg>
