<?xml version="1.0" encoding="UTF-8" standalone="no"?>
<svg
   version="1.1"
   id="tc-thermometer-power-sleep"
   width="24"
   height="24"
   viewBox="0 0 24 24"
   xmlns="http://www.w3.org/2000/svg"
   xmlns:svg="http://www.w3.org/2000/svg">
  <defs
     id="defs7" />
  <path
     id="path2"
     style="stroke-width:0.999995"
     d="M 7.0019531 2 C 5.3421107 2 4.0019531 3.3401576 4.0019531 5 L 4.0019531 12.998047 C 1.7921629 14.657889 1.3421107 17.788257 3.0019531 19.998047 C 4.6617955 22.207838 7.7921629 22.657889 10.001953 20.998047 C 12.211744 19.338204 12.661795 16.207837 11.001953 13.998047 C 10.721979 13.618083 10.381917 13.27802 10.001953 12.998047 L 10.001953 5 C 10.001953 3.3401576 8.6617956 2 7.0019531 2 z M 7.0019531 4 C 7.5519009 4 8.0019531 4.4500522 8.0019531 5 L 8.0019531 8 L 6.0019531 8 L 6.0019531 5 C 6.0019531 4.4500522 6.4520053 4 7.0019531 4 z M 18.242188 8 C 16.794605 8.1275387 15.45615 8.7978164 14.480469 9.8691406 C 12.356923 12.222228 12.542448 15.849141 14.882812 17.972656 C 17.248683 20.115306 20.876456 19.917541 23 17.564453 L 22.535156 17.564453 C 21.119462 17.564453 19.748439 17.049252 18.708984 16.105469 C 16.330361 13.988327 16.131397 10.359462 18.242188 8 z " />
</svg>
