<?xml version="1.0" encoding="UTF-8" standalone="no"?>
<svg
   version="1.1"
   id="mdi-thermometer-bluetooth"
   width="24"
   height="24"
   viewBox="0 0 24 24"
   xmlns="http://www.w3.org/2000/svg"
   xmlns:svg="http://www.w3.org/2000/svg">
  <defs
     id="defs7" />
  <path
     id="path2"
     style="stroke-width:1"
     d="M 8.0019531 2 C 6.3419531 2 5.0019531 3.3401576 5.0019531 5 L 5.0019531 12.998047 C 2.7919531 14.657889 2.3419531 17.788257 4.0019531 19.998047 C 5.6619531 22.207838 8.7919527 22.657889 11.001953 20.998047 C 13.211953 19.338204 13.661953 16.207837 12.001953 13.998047 C 11.721953 13.618083 11.381953 13.27802 11.001953 12.998047 L 11.001953 5 C 11.001953 3.3401576 9.6619531 2 8.0019531 2 z M 8.0019531 4 C 8.5519531 4 9.0019531 4.4500522 9.0019531 5 L 9.0019531 8 L 7.0019531 8 L 7.0019531 5 C 7.0019531 4.4500522 7.4519531 4 8.0019531 4 z M 18 6 C 18 6 14 10.499349 14 13.166016 A 4 4 0 0 0 18 17.166016 A 4 4 0 0 0 22 13.166016 C 22 10.499349 18 6 18 6 z " />
</svg>
