<?xml version="1.0" encoding="UTF-8" standalone="no"?>
<svg
   version="1.1"
   id="heat-index"
   width="24"
   height="24"
   viewBox="0 0 24 24"
   xmlns="http://www.w3.org/2000/svg"
   xmlns:svg="http://www.w3.org/2000/svg">
  <desc>thermometer fire heat</desc>
  <path d="M 9.0019531 2 C 7.3421109 2 6.0019531 3.3401576 6.0019531 5 L 6.0019531 12.998047 C 3.7921631 14.657889 3.3421111 17.788257 5.0019531 19.998047 C 6.6617961 22.207838 9.792163 22.657889 12.001953 20.998047 C 14.211744 19.338204 14.661795 16.207837 13.001953 13.998047 C 12.721979 13.618083 12.381917 13.27802 12.001953 12.998047 L 12.001953 5 C 12.001953 3.3401576 10.661796 2 9.0019531 2 z M 9.0019531 4 C 9.5519009 4 10.001953 4.4500522 10.001953 5 L 10.001953 8 L 8.0019531 8 L 8.0019531 5 C 8.0019531 4.4500522 8.4520049 4 9.0019531 4 z M 18.121094 6 C 17.578336 6.1314102 17.102906 6.428237 16.697266 6.7539062 C 15.217537 7.9423113 14.635016 10.040093 15.332031 11.839844 C 15.354891 11.896974 15.378906 11.953065 15.378906 12.027344 C 15.378906 12.153041 15.291996 12.266792 15.177734 12.3125 C 15.04633 12.36963 14.909333 12.335561 14.800781 12.244141 C 14.766511 12.215571 14.743563 12.188428 14.720703 12.148438 C 14.075114 11.331404 13.972043 10.15967 14.40625 9.2226562 C 14.033387 9.5263191 13.732283 9.9145439 13.501953 10.345703 L 13.501953 12.402344 C 13.738625 12.633958 14.005842 12.834572 14.203125 13.101562 C 14.853941 13.969266 15.250196 14.950549 15.410156 15.957031 C 15.730644 16.09518 16.066361 16.195275 16.412109 16.238281 C 17.634742 16.392545 18.943888 16.169821 19.880859 15.324219 C 20.926381 14.375779 21.29095 12.855409 20.753906 11.552734 L 20.679688 11.404297 C 20.559687 11.141474 20.240234 10.685547 20.240234 10.685547 C 20.108829 10.514141 19.949325 10.365348 19.800781 10.216797 C 19.417975 9.8739855 18.982833 9.627529 18.617188 9.2675781 C 17.765913 8.433409 17.578336 7.0569967 18.121094 6 z M 17.291016 10.537109 C 17.399566 10.754221 17.515227 10.971173 17.652344 11.142578 C 18.092263 11.713928 18.783097 11.965154 18.931641 12.742188 C 18.954501 12.822178 18.966797 12.902581 18.966797 12.988281 C 18.983937 13.456789 18.776389 13.970911 18.433594 14.285156 C 18.273522 14.422018 18.011852 14.569946 17.806641 14.626953 C 17.166759 14.855491 16.525512 14.535293 16.148438 14.158203 C 16.828314 13.998226 17.235491 13.496782 17.355469 12.988281 C 17.452599 12.531201 17.269589 12.152829 17.195312 11.712891 C 17.126752 11.290093 17.136766 10.931339 17.291016 10.537109 z " />
</svg>
