<?xml version="1.0" encoding="UTF-8" standalone="no"?>
<svg
   version="1.1"
   id="tc-thermometer-fire"
   width="24"
   height="24"
   viewBox="0 0 24 24"
   xmlns="http://www.w3.org/2000/svg"
   xmlns:svg="http://www.w3.org/2000/svg">
  <defs
     id="defs7" />
  <path
     id="path2"
     style="fill:#000000;stroke-width:0.999995"
     d="M 8.0019531 2 C 6.3421107 2 5.0019531 3.3401576 5.0019531 5 L 5.0019531 12.998047 C 2.7921629 14.657889 2.3421107 17.788257 4.0019531 19.998047 C 5.6617955 22.207838 8.7921629 22.657889 11.001953 20.998047 C 13.211744 19.338204 13.661795 16.207837 12.001953 13.998047 C 11.721979 13.618083 11.381917 13.27802 11.001953 12.998047 L 11.001953 5 C 11.001953 3.3401576 9.6617956 2 8.0019531 2 z M 8.0019531 4 C 8.5519009 4 9.0019531 4.4500522 9.0019531 5 L 9.0019531 8 L 7.0019531 8 L 7.0019531 5 C 7.0019531 4.4500522 7.4520053 4 8.0019531 4 z M 17.121094 6 C 16.578336 6.1314102 16.102906 6.428237 15.697266 6.7539062 C 14.217537 7.9423113 13.635016 10.040093 14.332031 11.839844 C 14.354891 11.896974 14.378906 11.953065 14.378906 12.027344 C 14.378906 12.153041 14.291996 12.266792 14.177734 12.3125 C 14.04633 12.36963 13.909333 12.335561 13.800781 12.244141 C 13.766511 12.215571 13.743563 12.188428 13.720703 12.148438 C 13.075107 11.331407 12.972043 10.15967 13.40625 9.2226562 C 12.531648 9.9349403 12.023629 11.098223 12.001953 12.242188 L 12.001953 12.378906 C 12.002845 12.437126 12.004312 12.49478 12.007812 12.552734 C 12.010312 12.573484 12.013125 12.594494 12.015625 12.615234 C 12.291756 12.864712 12.581581 13.102818 12.802734 13.402344 C 13.323422 14.096632 13.667944 14.868691 13.847656 15.666016 C 14.323259 15.966883 14.857282 16.169269 15.412109 16.238281 C 16.634742 16.392545 17.943888 16.169821 18.880859 15.324219 C 19.926381 14.375779 20.29095 12.855409 19.753906 11.552734 L 19.679688 11.404297 C 19.559707 11.141476 19.240234 10.685547 19.240234 10.685547 C 19.108829 10.514141 18.949325 10.365348 18.800781 10.216797 C 18.417973 9.8739857 17.982834 9.627529 17.617188 9.2675781 C 16.765915 8.433409 16.578336 7.0569967 17.121094 6 z M 16.291016 10.537109 C 16.399566 10.754221 16.515227 10.971173 16.652344 11.142578 C 17.092263 11.713928 17.783097 11.965154 17.931641 12.742188 C 17.954501 12.822178 17.966797 12.902581 17.966797 12.988281 C 17.983937 13.456789 17.776389 13.970911 17.433594 14.285156 C 17.273522 14.422018 17.011852 14.569946 16.806641 14.626953 C 16.166759 14.855491 15.525512 14.535293 15.148438 14.158203 C 15.828314 13.998226 16.235491 13.496782 16.355469 12.988281 C 16.452599 12.531201 16.269589 12.152829 16.195312 11.712891 C 16.126752 11.290093 16.136766 10.931339 16.291016 10.537109 z " />
</svg>
