<?xml version="1.0" encoding="UTF-8" standalone="no"?>
<svg
   version="1.1"
   id="mdi-thermometer-bluetooth"
   width="24"
   height="24"
   viewBox="0 0 24 24"
   xmlns="http://www.w3.org/2000/svg"
   xmlns:svg="http://www.w3.org/2000/svg">
  <defs
     id="defs7" />
  <path
     id="path2"
     style="stroke-width:0.999995;fill:#000000"
     d="M 8.0019531 2 C 6.3421107 2 5.0019531 3.3401576 5.0019531 5 L 5.0019531 12.998047 C 2.7921629 14.657889 2.3421107 17.788257 4.0019531 19.998047 C 5.6617955 22.207838 8.7921629 22.657889 11.001953 20.998047 C 13.211744 19.338204 13.661795 16.207837 12.001953 13.998047 C 11.721979 13.618083 11.381917 13.27802 11.001953 12.998047 L 11.001953 5 C 11.001953 3.3401576 9.6617956 2 8.0019531 2 z M 8.0019531 4 C 8.5519009 4 9.0019531 4.4500522 9.0019531 5 L 9.0019531 8 L 7.0019531 8 L 7.0019531 5 C 7.0019531 4.4500522 7.4520053 4 8.0019531 4 z M 19.759766 6 C 19.149164 6.1478365 18.616501 6.4812783 18.160156 6.8476562 C 16.495461 8.1846118 15.838905 10.543639 16.623047 12.568359 C 16.648767 12.632629 16.675781 12.697687 16.675781 12.78125 C 16.675781 12.92266 16.579721 13.052094 16.451172 13.103516 C 16.303342 13.167786 16.147512 13.128241 16.025391 13.025391 C 15.986841 12.993251 15.961267 12.961006 15.935547 12.916016 C 15.209251 11.996857 15.093548 10.679141 15.582031 9.625 C 14.508656 10.499167 13.924256 11.978242 14.007812 13.373047 C 14.046363 13.694434 14.084098 14.014554 14.193359 14.335938 C 14.283349 14.721597 14.457573 15.108555 14.650391 15.449219 C 15.344552 16.56121 16.545986 17.356884 17.837891 17.517578 C 19.213353 17.691125 20.686142 17.441535 21.740234 16.490234 C 22.916446 15.423239 23.32683 13.713556 22.722656 12.248047 L 22.640625 12.080078 C 22.505649 11.784404 22.144531 11.271484 22.144531 11.271484 C 21.9967 11.078652 21.817503 10.911261 21.650391 10.744141 C 21.219754 10.358481 20.731666 10.080726 20.320312 9.6757812 C 19.362631 8.7373411 19.149164 7.1891212 19.759766 6 z M 18.828125 11.103516 C 18.950243 11.347767 19.078165 11.592325 19.232422 11.785156 C 19.727331 12.427925 20.506716 12.709822 20.673828 13.583984 C 20.699548 13.673974 20.710938 13.764915 20.710938 13.861328 C 20.730217 14.388399 20.498925 14.966788 20.113281 15.320312 C 19.933315 15.474574 19.637636 15.6408 19.40625 15.705078 C 18.686383 15.962184 17.967177 15.603912 17.542969 15.179688 C 18.30783 14.999714 18.763462 14.433392 18.898438 13.861328 C 19.007708 13.347113 18.802308 12.922664 18.71875 12.427734 C 18.64162 11.952086 18.654595 11.547025 18.828125 11.103516 z " />
</svg>
