<?xml version="1.0" encoding="UTF-8" standalone="no"?>
<svg
   version="1.1"
   id="mdi-thermometer-bluetooth"
   width="24"
   height="24"
   viewBox="0 0 24 24"
   xmlns="http://www.w3.org/2000/svg"
   xmlns:svg="http://www.w3.org/2000/svg">
  <defs
     id="defs7" />
  <path
     id="path2"
     style="stroke-width:0.999995"
     d="M 8.0019531 2 C 6.3421107 2 5.0019531 3.3401576 5.0019531 5 L 5.0019531 12.998047 C 2.7921629 14.657889 2.3421107 17.788257 4.0019531 19.998047 C 5.6617955 22.207838 8.7921629 22.657889 11.001953 20.998047 C 13.211744 19.338204 13.661795 16.207837 12.001953 13.998047 C 11.721979 13.618083 11.381917 13.27802 11.001953 12.998047 L 11.001953 5 C 11.001953 3.3401576 9.6617956 2 8.0019531 2 z M 8.0019531 4 C 8.5519009 4 9.0019531 4.4500522 9.0019531 5 L 9.0019531 8 L 7.0019531 8 L 7.0019531 5 C 7.0019531 4.4500522 7.4520053 4 8.0019531 4 z M 17.71875 6 C 16.415926 6.1147848 15.210143 6.7174484 14.332031 7.6816406 C 12.420839 9.7994187 12.587032 13.065399 14.693359 14.976562 C 16.822642 16.904947 20.08881 16.727154 22 14.609375 L 21.580078 14.609375 C 20.305953 14.609375 19.072228 14.144327 18.136719 13.294922 C 15.995958 11.389494 15.819039 8.1235162 17.71875 6 z " />
</svg>
